<svg width="32" height="70" viewBox="0 0 821 987" fill="none" xmlns="http://www.w3.org/2000/svg">
<path d="M693.84 305.467C674.453 273.627 645.04 249.747 610.28 237.387C609.36 230.08 606.787 223.013 602.613 216.68C595.44 205.787 584.466 198.347 571.693 195.707L517.04 184.44C513.787 183.773 510.453 183.427 507.147 183.427C498.987 183.427 491.186 185.493 484.32 189.16C459.173 148.387 416.893 120.613 369.36 113.96C362.786 94.7733 344.573 80.9334 323.186 80.9334H267.386C245.986 80.9334 227.786 94.7733 221.2 113.96C184.653 119.04 151 136.493 125.586 163.76C97.6932 193.707 82.3198 232.747 82.3198 273.693V332.907C82.3198 421.84 154.68 494.2 243.613 494.2H296.586C317.4 538.96 358.36 573.68 410.307 584.387L511.507 605.253C522.293 607.48 533.307 608.613 544.24 608.613C580.813 608.613 616.72 595.907 645.347 572.84C674.373 549.453 694.506 516.44 702.053 479.867L714.013 421.867C722.28 381.76 715.12 340.427 693.84 305.467Z" fill="#FDE294"/>
<path d="M189.92 343.44C144.133 343.267 106.253 308.92 100.507 264.627C99.6265 257.907 93.8531 252.907 87.0797 252.907H86.7998C78.6131 252.907 72.2931 260.107 73.3464 268.227C80.8797 326.04 130.453 370.827 190.28 370.827C197.973 370.827 204.187 364.48 203.973 356.734C203.76 349.294 197.373 343.48 189.92 343.44Z" fill="#393536"/>
<path d="M633.853 336.333L621.906 394.333C609.133 456.28 554.04 501.227 490.906 501.227C481.826 501.227 472.68 500.293 463.706 498.44L362.506 477.573C303.92 465.493 262.146 416.627 256.333 360.053C256.293 359.76 256.266 359.467 256.24 359.173C256.146 358.28 256.066 357.373 256 356.453C255.973 355.973 255.946 355.493 255.906 355.013C255.826 353.747 255.759 352.48 255.719 351.2C255.693 350.467 255.666 349.72 255.653 348.973C255.639 348.347 255.639 347.72 255.626 347.093C255.626 346.133 255.639 345.173 255.653 344.213C255.653 343.813 255.653 343.413 255.666 343.013C255.706 341.667 255.76 340.333 255.84 338.987C255.866 338.547 255.893 338.107 255.919 337.667C255.999 336.587 256.079 335.493 256.186 334.413C256.213 334.067 256.24 333.707 256.28 333.36C256.413 331.947 256.573 330.547 256.759 329.16C256.799 328.853 256.84 328.547 256.88 328.253C257.04 327.093 257.213 325.947 257.4 324.8C257.466 324.413 257.533 324.027 257.6 323.627C257.84 322.213 258.106 320.8 258.4 319.373L270.359 261.387C275.146 238.16 285.893 217.32 300.773 200.347C325.573 172.053 361.893 154.493 401.346 154.493C402.533 154.493 403.72 154.52 404.906 154.547C405.146 162.16 407.186 169.613 410.893 176.373C410.906 176.387 410.906 176.4 410.919 176.413L411.133 176.8C411.706 177.813 412.293 178.8 412.933 179.773C413.04 179.933 413.146 180.093 413.266 180.253C413.28 180.28 413.293 180.307 413.319 180.333C413.346 180.373 413.373 180.413 413.4 180.467C418.546 188 425.533 193.813 433.68 197.467C433.76 197.493 433.839 197.533 433.919 197.573C434.426 197.787 434.946 198.013 435.453 198.213C435.666 198.293 435.866 198.373 436.08 198.453C436.52 198.627 436.96 198.8 437.413 198.947C437.72 199.067 438.026 199.16 438.346 199.267C438.72 199.387 439.093 199.52 439.466 199.627C439.893 199.76 440.319 199.88 440.759 200C441.039 200.08 441.333 200.16 441.626 200.227C442.359 200.413 443.093 200.6 443.853 200.747L498.506 212.013C501.72 212.68 504.999 213.013 508.253 213.027C508.306 213.027 508.346 213.027 508.4 213.027C509.48 213.027 510.546 212.987 511.6 212.907C511.8 212.907 512 212.893 512.2 212.88C513.213 212.787 514.24 212.68 515.24 212.533C515.426 212.507 515.613 212.48 515.786 212.453C516.826 212.293 517.853 212.107 518.88 211.88H518.893C519.919 211.653 520.933 211.373 521.933 211.08C522.106 211.027 522.28 210.987 522.466 210.933C523.426 210.64 524.386 210.307 525.333 209.96C525.48 209.907 525.64 209.84 525.8 209.773C526.76 209.413 527.719 209.013 528.653 208.587C528.666 208.573 528.666 208.573 528.68 208.573C529.626 208.133 530.546 207.667 531.466 207.173C531.613 207.08 531.773 207 531.919 206.92C532.799 206.427 533.666 205.92 534.519 205.373C534.639 205.293 534.773 205.2 534.893 205.12C535.759 204.56 536.613 203.987 537.426 203.373C537.439 203.36 537.466 203.347 537.48 203.333C538.306 202.72 539.106 202.067 539.906 201.4C540.026 201.28 540.159 201.173 540.293 201.067C541.053 200.4 541.799 199.72 542.519 199.013C542.626 198.907 542.719 198.813 542.826 198.707C543.546 197.987 544.253 197.253 544.919 196.48C544.946 196.453 544.973 196.44 545 196.413C545.68 195.627 546.333 194.827 546.973 194.013C547.08 193.867 547.186 193.733 547.293 193.6C547.906 192.787 548.493 191.96 549.053 191.12C549.133 191 549.213 190.867 549.293 190.747C549.839 189.907 550.36 189.053 550.866 188.173C550.893 188.12 550.933 188.067 550.959 188C551.466 187.107 551.933 186.187 552.386 185.253C552.426 185.16 552.48 185.067 552.533 184.973C579.293 195.667 601.92 214.733 617.106 239.693C634.773 268.72 640.719 303.04 633.853 336.333ZM233.373 386.813H190.28C116.44 386.813 56.373 326.747 56.373 252.907V193.693C56.373 159.693 69.1328 127.28 92.2928 102.427C112.213 81.0533 138.213 66.9333 166.586 61.88C166.613 62.0266 166.666 62.1601 166.693 62.3068C166.773 62.5868 166.84 62.8534 166.92 63.1334C167.04 63.6 167.173 64.0535 167.306 64.5068C167.386 64.7868 167.466 65.0534 167.559 65.3201C167.706 65.7867 167.866 66.2535 168.026 66.7068C168.119 66.9601 168.199 67.2001 168.293 67.4534C168.493 67.9734 168.693 68.5066 168.92 69.0266C168.986 69.1866 169.04 69.3601 169.106 69.5201C169.4 70.2001 169.706 70.8799 170.04 71.5599C170.093 71.6666 170.16 71.7868 170.213 71.9068C170.48 72.4535 170.76 72.9867 171.04 73.5334C171.16 73.7334 171.28 73.9466 171.4 74.1599C171.64 74.5866 171.893 75.0267 172.146 75.4534C172.28 75.6801 172.426 75.9067 172.559 76.1334C172.813 76.5467 173.08 76.9466 173.333 77.3466C173.48 77.5733 173.626 77.7866 173.786 78.0133C174.066 78.4266 174.36 78.8266 174.653 79.2266C174.786 79.4266 174.933 79.6134 175.066 79.8C175.44 80.2934 175.813 80.7601 176.2 81.2401C176.28 81.3335 176.346 81.4267 176.426 81.5334C176.906 82.1067 177.386 82.6666 177.893 83.2133C177.986 83.32 178.08 83.4134 178.186 83.5201C178.586 83.9601 178.986 84.3867 179.4 84.8C179.573 84.9734 179.746 85.1335 179.906 85.3068C180.266 85.6535 180.626 86 181 86.3334C181.186 86.5067 181.373 86.6801 181.573 86.8534C181.933 87.1867 182.306 87.4933 182.666 87.8133C182.866 87.9733 183.066 88.1468 183.266 88.3068C183.666 88.6268 184.066 88.9467 184.466 89.2534C184.653 89.3867 184.826 89.5334 185.013 89.6667C185.52 90.0534 186.053 90.4134 186.573 90.7867C186.653 90.8401 186.733 90.8934 186.8 90.9334C187.413 91.36 188.04 91.76 188.68 92.1466C188.826 92.24 188.986 92.32 189.146 92.4133C189.626 92.7066 190.106 92.9867 190.586 93.2534C190.813 93.3734 191.04 93.48 191.253 93.6C191.693 93.84 192.119 94.0533 192.559 94.28C192.813 94.4 193.053 94.5066 193.306 94.6266C193.733 94.8399 194.173 95.0266 194.613 95.2266C194.866 95.3333 195.106 95.44 195.359 95.5466C195.826 95.7333 196.306 95.9201 196.773 96.1068C197 96.1868 197.226 96.2799 197.44 96.3599C198.093 96.5866 198.733 96.8133 199.4 97.0133C199.453 97.04 199.506 97.0533 199.559 97.08C200.279 97.2933 201.013 97.5066 201.733 97.6933C201.946 97.7466 202.173 97.8001 202.386 97.8534C202.906 97.9734 203.426 98.1066 203.946 98.2133C204.213 98.2666 204.493 98.3201 204.759 98.3735C205.239 98.4668 205.72 98.5466 206.2 98.6266C206.493 98.6799 206.786 98.7199 207.08 98.7599C207.546 98.8266 208.026 98.8933 208.52 98.9466C208.8 98.9866 209.093 99.0135 209.386 99.0401C209.906 99.0935 210.426 99.1333 210.959 99.1599C211.199 99.1733 211.453 99.2 211.706 99.2133C212.48 99.2533 213.266 99.2667 214.053 99.2667H269.853C270.639 99.2667 271.413 99.2533 272.2 99.2133C272.453 99.2 272.693 99.1733 272.946 99.1599C273.466 99.1333 273.999 99.0935 274.519 99.0401C274.813 99.0135 275.093 98.9866 275.386 98.9466C275.866 98.8933 276.346 98.8266 276.826 98.7599C277.119 98.7199 277.413 98.6799 277.706 98.6266C278.186 98.5466 278.653 98.4668 279.133 98.3735C279.413 98.3201 279.679 98.2666 279.959 98.2133C280.479 98.1066 281 97.9734 281.506 97.8534C281.733 97.8001 281.946 97.7466 282.159 97.6933C282.893 97.5066 283.613 97.3066 284.333 97.08C284.4 97.0533 284.453 97.04 284.519 97.0133C285.173 96.8133 285.813 96.5866 286.453 96.3599C286.679 96.2799 286.893 96.1868 287.119 96.1068C287.599 95.9201 288.066 95.7333 288.546 95.5466C288.786 95.44 289.04 95.3333 289.28 95.2266C289.72 95.0266 290.16 94.8399 290.6 94.6266C290.84 94.5199 291.093 94.4 291.333 94.28C291.773 94.0533 292.213 93.84 292.64 93.6C292.866 93.48 293.093 93.3734 293.306 93.2534C293.8 92.9734 294.279 92.6933 294.759 92.4133C294.919 92.32 295.066 92.24 295.226 92.1466C295.853 91.76 296.479 91.36 297.093 90.9466C297.173 90.8933 297.239 90.8401 297.319 90.7867C297.853 90.4267 298.373 90.0534 298.893 89.6667C299.079 89.5334 299.253 89.3867 299.426 89.2534C299.839 88.9467 300.24 88.6268 300.64 88.3068C300.84 88.1468 301.026 87.9733 301.226 87.8133C301.599 87.4933 301.973 87.1867 302.333 86.8534C302.52 86.6801 302.72 86.5067 302.906 86.3334C303.266 86 303.64 85.6533 304 85.2933C304.16 85.1333 304.333 84.9734 304.493 84.8C304.919 84.3867 305.333 83.9468 305.733 83.5068C305.826 83.4135 305.92 83.32 306.013 83.2133C306.506 82.6666 307 82.1067 307.466 81.5334C307.546 81.4267 307.626 81.3335 307.706 81.2401C308.093 80.7601 308.466 80.2934 308.826 79.8C308.973 79.6134 309.106 79.4268 309.24 79.2401C309.546 78.8268 309.839 78.4266 310.119 78.0133C310.266 77.7866 310.413 77.5733 310.559 77.3466C310.826 76.9466 311.08 76.5467 311.333 76.1334C311.48 75.9067 311.613 75.6934 311.759 75.4667C312.013 75.0267 312.266 74.5999 312.506 74.1599C312.626 73.9466 312.746 73.7467 312.853 73.5334C313.146 72.9867 313.426 72.4399 313.693 71.8933C313.746 71.7866 313.813 71.6666 313.866 71.5599C314.186 70.8933 314.493 70.2134 314.786 69.5201C314.853 69.3467 314.92 69.1734 315 69C315.2 68.4934 315.413 67.9734 315.6 67.4534C315.693 67.2001 315.786 66.9466 315.88 66.6933C316.04 66.2399 316.186 65.7867 316.333 65.3334C316.426 65.0534 316.506 64.7868 316.6 64.5068C316.733 64.0535 316.853 63.6 316.986 63.1466C317.053 62.8666 317.133 62.5868 317.2 62.3068C317.24 62.1601 317.279 62.0266 317.319 61.88C356.146 68.8666 390.253 92.8934 409.946 127.333C409.186 127.293 408.44 127.28 407.68 127.253C407.16 127.227 406.639 127.2 406.119 127.187C404.533 127.133 402.933 127.107 401.346 127.107C399.093 127.107 396.826 127.16 394.586 127.253C394.546 127.253 394.506 127.253 394.48 127.253C382.973 127.747 371.733 129.48 360.893 132.333C360.866 132.333 360.826 132.347 360.8 132.347C358.773 132.893 356.746 133.467 354.733 134.08C354.48 134.16 354.213 134.24 353.946 134.32C352.213 134.853 350.506 135.427 348.8 136.013C348.2 136.227 347.6 136.427 347.013 136.653C345.68 137.133 344.359 137.627 343.053 138.147C327.693 144.12 313.213 152.427 300.24 162.88C283.226 176.587 269.306 193.613 259.146 212.707C258.88 213.213 258.613 213.733 258.346 214.24C257.68 215.52 257.026 216.8 256.4 218.107C255.8 219.347 255.199 220.587 254.626 221.853C254.346 222.48 254.053 223.12 253.773 223.76C253.026 225.48 252.293 227.213 251.586 228.96C251.493 229.2 251.4 229.453 251.306 229.693C250.546 231.653 249.813 233.613 249.119 235.613C249.079 235.707 249.053 235.813 249.013 235.907C248.28 238.013 247.599 240.147 246.959 242.293C246.946 242.32 246.946 242.347 246.933 242.373C245.613 246.787 244.48 251.28 243.533 255.853L231.573 313.853C231.28 315.293 231 316.747 230.746 318.2C230.666 318.653 230.6 319.107 230.52 319.56C230.346 320.56 230.186 321.56 230.04 322.56C229.946 323.093 229.88 323.64 229.8 324.187C229.68 325.093 229.546 326 229.44 326.92C229.373 327.493 229.306 328.08 229.24 328.653C229.146 329.533 229.053 330.4 228.973 331.28C228.906 331.88 228.853 332.48 228.8 333.093C228.733 333.933 228.68 334.773 228.613 335.613C228.573 336.24 228.533 336.88 228.493 337.507C228.453 338.307 228.413 339.107 228.386 339.893C228.36 340.573 228.32 341.24 228.306 341.92C228.28 342.627 228.28 343.32 228.266 344.027C228.213 347.427 228.266 350.827 228.426 354.227C228.426 354.253 228.426 354.293 228.426 354.32C228.493 355.56 228.573 356.787 228.653 358.027C228.666 358.133 228.666 358.253 228.68 358.373C228.773 359.64 228.893 360.907 229.013 362.173C229.013 362.213 229.013 362.24 229.026 362.28C229.839 370.547 231.28 378.747 233.373 386.813ZM214.053 28.3201H269.853C281.666 28.3201 291.28 37.9333 291.28 49.7466V50.4534C291.28 62.2801 281.666 71.88 269.853 71.88H214.053C202.226 71.88 192.626 62.2801 192.626 50.4534V49.7466C192.626 37.9333 202.226 28.3201 214.053 28.3201ZM458.173 131.267L512.826 142.533C518.439 143.68 523.253 146.96 526.4 151.733C529.16 155.92 530.346 160.84 529.813 165.76C529.813 165.8 529.8 165.84 529.8 165.893C529.786 165.907 529.786 165.933 529.786 165.947C529.719 166.573 529.626 167.2 529.493 167.827C529.493 167.84 529.493 167.84 529.493 167.853L529.426 168.173L529.346 168.533C528.293 173.667 525.4 178.067 521.48 181.12C517.826 183.96 513.266 185.653 508.4 185.653C506.946 185.653 505.48 185.493 504.04 185.2L449.373 173.933C448.666 173.787 447.96 173.6 447.28 173.387C447.173 173.347 447.079 173.307 446.986 173.28C446.399 173.08 445.813 172.88 445.24 172.627C445.24 172.627 445.226 172.613 445.213 172.613C437.4 169.24 432.28 161.467 432.28 152.947C432.28 152.933 432.28 152.933 432.28 152.92C432.28 152.307 432.32 151.68 432.373 151.053C432.386 150.96 432.373 150.88 432.386 150.787L432.4 150.707C432.466 150.013 432.573 149.32 432.719 148.613L432.8 148.24L432.866 147.92C432.866 147.893 432.88 147.88 432.88 147.853V147.84C432.986 147.32 433.12 146.827 433.266 146.333C433.293 146.213 433.319 146.107 433.359 146C433.359 145.973 433.373 145.96 433.373 145.933C433.56 145.333 433.773 144.76 434.013 144.187C434.12 143.893 434.253 143.613 434.386 143.333C434.519 143.04 434.653 142.747 434.8 142.467C434.973 142.12 435.173 141.787 435.359 141.453C435.493 141.24 435.613 141.027 435.733 140.827C435.96 140.48 436.2 140.133 436.44 139.787C436.56 139.613 436.693 139.453 436.813 139.28C440.773 134.107 447 130.813 453.813 130.813C455.266 130.813 456.733 130.96 458.173 131.267ZM640.506 225.467C621.12 193.627 591.706 169.747 556.946 157.387C556.026 150.08 553.453 143.013 549.28 136.68C542.106 125.787 531.133 118.347 518.359 115.707L463.706 104.44C460.453 103.773 457.12 103.427 453.813 103.427C445.653 103.427 437.853 105.493 430.986 109.16C405.839 68.3866 363.559 40.6133 316.026 33.9599C309.453 14.7733 291.239 0.933365 269.853 0.933365H214.053C192.653 0.933365 174.453 14.7733 167.866 33.9599C131.32 39.0399 97.6663 56.4933 72.253 83.7599C44.3597 113.707 28.9863 152.747 28.9863 193.693V252.907C28.9863 341.84 101.346 414.2 190.28 414.2H243.253C264.066 458.96 305.026 493.68 356.973 504.387L458.173 525.253C468.96 527.48 479.973 528.613 490.906 528.613C527.48 528.613 563.386 515.907 592.013 492.84C621.04 469.453 641.173 436.44 648.719 399.867L660.68 341.867C668.946 301.76 661.786 260.427 640.506 225.467Z" fill="#393536"/>
<path d="M370.933 435.027C347.44 430.094 327.213 416.307 313.96 396.174C302.867 379.307 297.787 359.72 299.227 339.987C299.72 333.16 295.24 326.974 288.533 325.6L288.093 325.507C280.147 323.867 272.547 329.56 271.933 337.654C269.96 363.507 276.56 389.16 291.08 411.227C308.414 437.56 334.933 455.56 365.733 461.92C366.667 462.107 367.6 462.2 368.507 462.2C375.187 462.2 381.134 457.294 382.08 450.294C383.027 443.134 378 436.507 370.933 435.027Z" fill="#393536"/>
<path d="M71.6474 838.454L80.499 847.472C72.0371 857.159 61.5711 862.002 49.101 862.002C36.7423 862.002 26.4433 858.049 18.2041 850.144C10.0763 842.128 6.01237 832.052 6.01237 819.915C6.01237 807.668 10.1876 797.536 18.5381 789.52C26.8887 781.392 37.4103 777.328 50.1031 777.328C62.5732 777.328 73.0948 782.004 81.668 791.357L72.9835 800.876C69.0866 797.091 65.4124 794.474 61.9608 793.027C58.5093 791.579 54.4454 790.856 49.7691 790.856C41.4186 790.856 34.4041 793.528 28.7258 798.872C23.1588 804.216 20.3753 811.008 20.3753 819.247C20.3753 827.375 23.1588 834.278 28.7258 839.957C34.2928 845.635 40.9175 848.474 48.6 848.474C53.2763 848.474 57.2845 847.695 60.6247 846.136C64.0763 844.577 67.7505 842.016 71.6474 838.454ZM108.442 799.874C108.442 803.326 109.722 805.831 112.283 807.39C114.844 809.282 120.3 811.231 128.65 813.235C137.446 815.351 143.848 818.245 147.856 821.92C151.976 825.594 154.036 830.882 154.036 837.786C154.036 845.023 151.308 850.868 145.852 855.322C140.508 859.775 133.493 862.002 124.809 862.002C112.227 862.002 100.871 857.548 90.7388 848.641L99.4233 838.287C107.885 845.524 116.458 849.142 125.143 849.142C129.485 849.142 132.992 848.196 135.665 846.303C138.337 844.299 139.673 841.738 139.673 838.621C139.673 835.503 138.448 833.054 135.999 831.272C133.66 829.491 129.43 827.876 123.306 826.429C112.728 823.979 105.38 821.085 101.26 817.744C96.4728 814.07 94.079 808.447 94.079 800.876C94.079 793.528 96.7512 787.794 102.095 783.674C107.44 779.443 114.287 777.328 122.638 777.328C133.883 777.328 143.514 780.612 151.531 787.181L144.182 797.536C141.733 795.309 138.448 793.528 134.328 792.192C130.209 790.744 126.145 790.021 122.137 790.021C118.017 790.021 114.677 790.911 112.116 792.693C109.667 794.363 108.442 796.757 108.442 799.874ZM171.142 779.332H185.004V861H171.142V779.332ZM207.529 861V779.332H221.39V847.973H258.634V861H207.529ZM273.657 861V779.332H287.519V847.973H324.763V861H273.657ZM351.31 842.462L343.127 861H328.43L364.504 779.332H379.201L415.108 861H400.411L392.228 842.462H351.31ZM386.716 829.602L371.852 796.033L356.988 829.602H386.716ZM483.098 821.252H496.793V849.142C489.111 857.715 478.088 862.002 463.725 862.002C451.589 862.002 441.457 857.994 433.329 849.977C425.201 841.961 421.137 831.94 421.137 819.915C421.137 807.891 425.257 797.814 433.496 789.687C441.847 781.447 451.923 777.328 463.725 777.328C475.527 777.328 485.325 780.724 493.119 787.515L485.77 798.037C480.092 793.249 473.133 790.856 464.894 790.856C456.544 790.856 449.529 793.584 443.851 799.039C438.284 804.384 435.5 811.342 435.5 819.915C435.5 828.489 438.172 835.447 443.517 840.792C448.972 846.025 455.709 848.641 463.725 848.641C471.519 848.641 477.977 846.971 483.098 843.631V821.252ZM528.937 792.192V814.571H565.179V827.264H528.937V861H515.075V779.332H569.521L569.354 792.192H528.937ZM601.491 765.637C601.491 763.744 602.215 762.13 603.662 760.794C605.11 759.346 606.836 758.623 608.84 758.623C610.844 758.623 612.514 759.291 613.85 760.627C615.186 761.963 615.854 763.633 615.854 765.637C615.854 767.641 615.13 769.367 613.683 770.814C612.347 772.262 610.677 772.986 608.673 772.986C606.669 772.986 604.943 772.262 603.495 770.814C602.159 769.367 601.491 767.641 601.491 765.637ZM623.203 765.637C623.203 763.744 623.926 762.13 625.374 760.794C626.821 759.346 628.491 758.623 630.384 758.623C632.388 758.623 634.058 759.291 635.394 760.627C636.842 761.963 637.565 763.633 637.565 765.637C637.565 767.641 636.842 769.367 635.394 770.814C634.058 772.262 632.388 772.986 630.384 772.986C628.491 772.986 626.821 772.262 625.374 770.814C623.926 769.367 623.203 767.641 623.203 765.637ZM619.361 848.808C625.708 848.808 630.718 846.637 634.392 842.295C638.178 837.953 640.071 832.052 640.071 824.592V779.332H653.932V825.093C653.932 836.672 650.759 845.691 644.413 852.148C638.066 858.606 629.716 861.835 619.361 861.835C609.007 861.835 600.656 858.606 594.31 852.148C587.963 845.691 584.79 836.672 584.79 825.093V779.332H598.485V824.592C598.485 832.163 600.378 838.064 604.163 842.295C607.838 846.637 612.904 848.808 619.361 848.808ZM723.25 831.272L744.627 861H727.091L707.551 833.443H689.513V861H675.652V779.332H706.048C718.406 779.332 727.258 781.447 732.602 785.678C738.058 789.798 740.786 796.534 740.786 805.887C740.786 819.359 734.94 827.821 723.25 831.272ZM706.549 821.085C714.231 821.085 719.52 819.915 722.415 817.577C725.309 815.239 726.757 811.287 726.757 805.72C726.757 800.375 725.309 796.757 722.415 794.864C719.52 792.86 714.342 791.858 706.883 791.858H689.513V821.085H706.549ZM791.662 791.858V861H777.8V791.858H753.082V779.332H816.379V791.858H791.662Z" fill="#393536"/>
</svg>
