<svg width="32" height="70" viewBox="0 0 598 1066" fill="none" xmlns="http://www.w3.org/2000/svg">
<path d="M380.64 145.92C356.266 134.24 335.519 116.72 320.626 95.267L314.613 86.5871C312.053 82.8937 307.853 80.6936 303.359 80.6936C298.866 80.6936 294.666 82.8938 292.106 86.5738L286.093 95.267C271.199 116.734 250.453 134.24 226.08 145.92C128.186 192.827 54.373 318.907 54.373 439.187C54.373 477.84 60.9063 514.24 73.7996 547.374C86.1863 579.227 104.146 607.36 127.173 630.96C172.746 677.667 235.319 703.4 303.359 703.4C371.399 703.4 433.96 677.667 479.533 630.96C502.56 607.36 520.52 579.227 532.92 547.374C545.813 514.24 552.346 477.84 552.346 439.187C552.346 318.907 478.533 192.827 380.64 145.92Z" fill="#F7939E"/>
<path d="M406.6 531.84C366.227 573.214 310.626 596.014 250.026 596.014C189.426 596.014 133.827 573.214 93.4533 531.84C50.9066 488.227 28.4265 428.534 28.4265 359.187C28.4265 305.28 44.72 248.014 74.32 197.947C103.307 148.92 142.453 110.8 184.573 90.6269C210.493 78.2003 232.96 60.1203 250.026 38.0136C267.093 60.1203 289.56 78.2003 315.467 90.6269C357.587 110.8 396.747 148.92 425.733 197.947C455.333 248.014 471.626 305.28 471.626 359.187C471.626 428.534 449.147 488.227 406.6 531.84ZM327.307 65.9204C302.933 54.2404 282.186 36.7204 267.293 15.267L261.28 6.58708C258.72 2.89374 254.52 0.693587 250.026 0.693587C245.533 0.693587 241.333 2.8938 238.773 6.5738L232.76 15.267C217.866 36.7337 197.12 54.2404 172.747 65.9204C74.8532 112.827 1.04004 238.907 1.04004 359.187C1.04004 397.84 7.57327 434.24 20.4666 467.374C32.8533 499.227 50.8134 527.36 73.84 550.96C119.413 597.667 181.986 623.4 250.026 623.4C318.066 623.4 380.627 597.667 426.2 550.96C449.227 527.36 467.187 499.227 479.587 467.374C492.48 434.24 499.013 397.84 499.013 359.187C499.013 238.907 425.2 112.827 327.307 65.9204Z" fill="#393536"/>
<path d="M417.626 317.267C417.453 317.587 417.293 317.933 417.147 318.28C411.693 330.8 406.533 331.84 401.733 331.84C401.72 331.84 401.72 331.84 401.72 331.84C398.8 331.84 395.267 331.227 391.213 330.027C386.747 328.68 382.027 328.134 377.68 328.44C365.8 329.307 357.213 336.84 355.28 348.107C353.187 360.334 358.867 370.827 369.747 374.827C375.147 376.813 380.533 377.587 385.28 378.267L385.493 378.293C398.453 380.16 404.347 384.667 408.013 395.534C409.427 399.72 406.573 410.92 400.413 416.814C397.107 419.974 392.427 421.12 385.08 422.72L384.48 422.854C372.027 425.574 366.293 432.133 363.68 437.16C361.067 442.173 358.973 450.6 363.84 462.293C365.387 466 367.173 469.254 368.907 472.4L369.64 473.72C372.693 479.334 371.467 481.2 368.147 483.867C366.187 485.44 364.093 486.827 361.907 488.014C347.187 495.934 340.533 507.814 342.107 523.307C342.307 525.214 341.52 529.147 339.347 533.227C337.173 537.32 331.84 540.067 326.08 540.067C324.987 540.067 323.893 539.96 322.853 539.76C316.44 538.52 309.68 531.507 308.68 525.067C308.013 520.827 307.707 516.374 307.387 511.654C307.053 506.734 306.707 501.653 305.92 496.427C303.733 481.8 295.16 471.974 282.4 469.48C280.56 469.12 278.706 468.934 276.893 468.934C270.093 468.934 260.187 471.467 251.64 483.534C251.08 484.334 250.533 485.134 250.026 485.92C249.506 485.134 248.973 484.334 248.413 483.534C239.853 471.467 229.96 468.934 223.16 468.934C221.346 468.934 219.48 469.12 217.64 469.48C204.893 471.974 196.32 481.8 194.12 496.427C193.347 501.653 193 506.734 192.653 511.654C192.333 516.374 192.027 520.827 191.373 525.067C190.373 531.507 183.613 538.52 177.187 539.76C176.147 539.96 175.067 540.067 173.973 540.067C168.213 540.067 162.88 537.32 160.707 533.24C158.52 529.134 157.747 525.214 157.933 523.307C159.52 507.814 152.867 495.934 138.147 488.014C135.96 486.827 133.853 485.44 131.893 483.867C128.573 481.2 127.347 479.334 130.413 473.72L131.147 472.387C132.88 469.254 134.667 466 136.2 462.307C141.08 450.6 138.987 442.173 136.373 437.16C133.76 432.133 128.026 425.574 115.56 422.854L114.973 422.72C107.627 421.12 102.947 419.974 99.64 416.814C93.4667 410.92 90.6267 399.72 92.04 395.534C95.6934 384.667 101.586 380.16 114.56 378.293L114.76 378.267C119.52 377.587 124.907 376.813 130.307 374.827C141.187 370.827 146.866 360.334 144.76 348.107C142.826 336.84 134.24 329.307 122.36 328.44C118.013 328.12 113.306 328.68 108.826 330.027C104.786 331.227 101.253 331.84 98.32 331.84C93.52 331.84 88.36 330.8 82.9067 318.28C82.7467 317.933 82.5865 317.587 82.4265 317.267V310.867C85.2932 304.56 90 299.627 97.0533 295.467C111.307 287.04 108.333 271.654 107.36 266.587C106.666 263 105.467 259.974 104.413 257.307C104.053 256.4 103.693 255.494 103.373 254.574C101.267 248.48 103.52 247.467 105.92 246.4C121.88 239.267 129.026 226.853 127.16 209.493C126.6 204.333 127.293 198.32 129.04 193.013C129.72 190.947 130.88 190.947 131.373 190.947C131.707 190.947 132.08 191 132.48 191.107C135.867 191.987 139.187 192.44 142.347 192.44C160.453 192.44 169.12 178.267 171.973 173.613C175.707 167.507 180.32 163.76 186.067 162.147C187.693 161.68 189.32 161.454 190.933 161.454C199.333 161.454 206.907 167.707 209.773 177C212.36 185.374 210.787 193.907 208.28 205.054C204.907 220.094 202.28 242.307 218.333 261.507C226.173 270.867 237.587 276.24 249.68 276.24H250.026H250.373C262.453 276.24 273.88 270.867 281.707 261.507C297.773 242.307 295.146 220.094 291.76 205.054C289.266 193.907 287.693 185.374 290.267 177C293.133 167.707 300.707 161.454 309.107 161.454C310.72 161.454 312.36 161.68 313.987 162.147C319.733 163.76 324.347 167.507 328.08 173.613C330.92 178.267 339.587 192.44 357.707 192.44C360.867 192.44 364.173 191.987 367.56 191.107C367.96 191 368.333 190.947 368.68 190.947C369.173 190.947 370.32 190.947 371.013 193.013C372.76 198.333 373.453 204.333 372.893 209.493C371.026 226.853 378.173 239.267 394.133 246.4C396.52 247.467 398.787 248.48 396.68 254.574C396.36 255.48 396 256.387 395.64 257.293C394.573 259.973 393.386 263 392.693 266.587C391.72 271.654 388.747 287.04 403 295.467C410.053 299.627 414.746 304.56 417.626 310.867V317.267ZM419.587 271.774C419.787 270.68 420.427 269.067 421.107 267.36C421.6 266.093 422.107 264.827 422.547 263.534C428.827 245.427 422.053 228.88 405.307 221.4C400.147 219.094 399.52 218.013 400.12 212.427C401.093 203.387 399.987 193.453 397.013 184.427C392.827 171.747 381.707 163.56 368.68 163.56C366 163.56 363.307 163.92 360.64 164.613C359.507 164.907 358.52 165.054 357.707 165.054C356.68 165.054 354.947 165.054 351.44 159.32C344.147 147.4 333.76 139.254 321.4 135.787C317.373 134.64 313.24 134.067 309.107 134.067C288.613 134.067 270.533 148.08 264.107 168.934C259.173 184.907 262.427 199.4 265.053 211.054C268.533 226.56 267.267 236.093 260.707 243.947C257.307 248 253.213 248.854 250.373 248.854H250.2C250.08 248.854 249.973 248.854 249.853 248.854H249.68C246.84 248.854 242.747 248 239.347 243.934C232.773 236.094 231.52 226.56 235 211.054C237.613 199.4 240.867 184.907 235.947 168.934C229.52 148.08 211.427 134.067 190.933 134.067C186.813 134.067 182.68 134.64 178.653 135.787C166.293 139.254 155.907 147.4 148.613 159.32C145.107 165.054 143.373 165.054 142.333 165.054C141.52 165.054 140.533 164.907 139.4 164.613C136.747 163.92 134.04 163.56 131.373 163.56C118.347 163.56 107.227 171.76 103.04 184.427C100.067 193.44 98.9599 203.387 99.9333 212.427C100.533 218.013 99.8932 219.094 94.7465 221.4C77.9999 228.88 71.2267 245.427 77.5067 263.534C77.9467 264.827 78.4399 266.094 78.9465 267.374C79.6265 269.08 80.2666 270.694 80.4666 271.774C80.5866 272.4 80.6799 272.92 80.7465 273.347C68.8932 280.947 60.5467 291.027 55.92 303.347C55.3333 304.88 55.04 306.507 55.04 308.16V321.64C55.04 324.694 56.0665 327.68 57.9598 330.08C58.1198 330.293 58.2933 330.507 58.4666 330.707C65.4933 345.974 75.5733 355.173 88.5333 358.16C79.5466 363.227 71.1332 371.814 66.0799 386.8C60.9599 402 67.3999 423.894 80.7333 436.614C89.7599 445.24 100.507 447.587 109.12 449.48L109.707 449.6C110.48 449.774 111.067 449.947 111.52 450.107C111.387 450.547 111.2 451.094 110.92 451.774C109.96 454.094 108.587 456.574 107.147 459.187L106.387 460.587C97.3733 477.08 100.493 493.76 114.747 505.214C118 507.827 121.506 510.16 125.16 512.12C130.973 515.254 131.053 516.96 130.693 520.534C129.613 531.2 133.88 541.134 136.533 546.107C143.44 559.067 158.133 567.454 173.973 567.454C176.813 567.454 179.653 567.174 182.413 566.64C200.173 563.2 215.653 547.134 218.426 529.267C219.266 523.867 219.627 518.614 219.973 513.534C220.293 508.947 220.587 504.613 221.213 500.493C221.6 497.84 222.293 496.654 222.453 496.48C222.453 496.48 222.573 496.414 222.92 496.347C223.027 496.334 223.107 496.32 223.107 496.32C223.267 496.387 224.347 496.947 226.067 499.374C228.173 502.347 230.04 505.96 232.013 509.774C232.893 511.48 233.773 513.174 234.693 514.854C235.173 515.734 235.667 516.814 236.147 517.854C236.413 518.427 236.667 518.974 236.907 519.48C239.067 524 243.533 526.974 248.533 527.24C249.027 527.267 249.533 527.253 250.026 527.227C250.52 527.267 251.013 527.267 251.52 527.24C256.52 526.974 260.973 524 263.133 519.493C263.387 518.973 263.64 518.413 263.92 517.827C264.387 516.8 264.88 515.734 265.36 514.854C266.266 513.174 267.16 511.48 268.04 509.774C270.013 505.96 271.867 502.347 273.987 499.374C275.8 496.814 276.893 496.334 276.893 496.32C276.906 496.32 276.987 496.32 277.133 496.347C277.413 496.4 277.533 496.454 277.56 496.454C277.773 496.694 278.453 497.88 278.84 500.493C279.467 504.613 279.76 508.947 280.067 513.52C280.413 518.614 280.773 523.867 281.613 529.267C284.387 547.134 299.88 563.2 317.64 566.64C320.4 567.174 323.227 567.454 326.08 567.454C341.92 567.454 356.613 559.067 363.52 546.093C366.16 541.133 370.44 531.2 369.36 520.52C368.986 516.96 369.08 515.254 374.88 512.12C378.533 510.16 382.04 507.827 385.307 505.214C399.547 493.76 402.68 477.08 393.667 460.587L392.893 459.2C391.453 456.574 390.093 454.094 389.133 451.774C388.84 451.094 388.653 450.547 388.533 450.107C388.987 449.947 389.573 449.774 390.347 449.6L390.92 449.48C399.547 447.587 410.28 445.24 419.32 436.614C432.653 423.894 439.093 402 433.96 386.787C430.84 377.507 425.213 365.814 411.426 358.174C424.426 355.214 434.547 346.014 441.587 330.707C441.76 330.507 441.933 330.293 442.093 330.08C443.986 327.68 445.013 324.694 445.013 321.64V308.16C445.013 306.507 444.707 304.88 444.133 303.347C439.507 291.027 431.16 280.947 419.293 273.347C419.373 272.92 419.453 272.4 419.587 271.774Z" fill="#393536"/>
<path d="M39.4144 858.332C54 858.332 65.2454 861.895 73.1505 869.021C81.0557 876.035 85.0083 885.944 85.0083 898.748C85.0083 911.775 81.1113 921.907 73.3175 929.144C65.5237 936.381 53.8887 940 38.4124 940H11.3567V858.332H39.4144ZM38.9134 871.025H25.2186V926.973H40.4165C50.4371 926.973 58.0639 924.635 63.2969 919.959C68.5299 915.171 71.1464 908.212 71.1464 899.082C71.1464 880.377 60.4021 871.025 38.9134 871.025ZM102.64 858.332H116.502V940H102.64V858.332ZM176.771 868.854C168.643 868.854 161.796 871.748 156.229 877.538C150.662 883.328 147.878 890.342 147.878 898.581C147.878 906.821 150.662 913.835 156.229 919.625C161.796 925.303 168.643 928.142 176.771 928.142C184.899 928.142 191.746 925.303 197.313 919.625C202.88 913.835 205.664 906.821 205.664 898.581C205.664 890.342 202.88 883.328 197.313 877.538C191.746 871.748 184.899 868.854 176.771 868.854ZM176.771 940.835C164.524 940.835 154.28 936.827 146.041 928.81C137.802 920.682 133.682 910.606 133.682 898.581C133.682 886.557 137.802 876.536 146.041 868.52C154.28 860.392 164.524 856.328 176.771 856.328C189.018 856.328 199.262 860.392 207.501 868.52C215.74 876.536 219.86 886.557 219.86 898.581C219.86 910.606 215.684 920.627 207.334 928.643C198.983 936.771 188.796 940.835 176.771 940.835ZM178.942 851.485H166.917L179.276 834.616L193.138 840.295L178.942 851.485ZM251.133 871.192V893.571H287.374V906.264H251.133V940H237.271V858.332H291.716L291.549 871.192H251.133ZM365.439 858.332V871.192H321.849V892.903H360.93V905.095H321.849V926.973H366.775V940H307.988V858.332H365.439ZM342.893 851.485H331.035L343.394 834.616L357.256 840.295L342.893 851.485ZM384.4 940V858.332H398.262V926.973H435.505V940H384.4ZM507.98 858.332V871.192H464.39V892.903H503.471V905.095H464.39V926.973H509.316V940H450.529V858.332H507.98ZM485.434 851.485H473.576L485.935 834.616L499.797 840.295L485.434 851.485ZM526.941 858.332H540.803V898.08L578.213 858.332H595.582L562.848 894.072L596.083 940H579.716L552.66 904.26L540.803 917.12V940H526.941V858.332Z" fill="#393536"/>
</svg>
