<svg width="32" height="70" viewBox="0 0 1019 1013" fill="none" xmlns="http://www.w3.org/2000/svg">
<path d="M789.644 448.946C788.899 425.56 780.508 403.52 765.816 385.707C772.704 377.413 778.266 368.133 782.361 357.96L783.048 356.253C804.608 302.64 778.53 241.48 724.918 219.92L665.773 196.133C639.71 185.653 610.654 186.2 585.213 197.133C574.426 171.627 553.833 151.12 527.769 140.64L397.219 88.1465C371.249 77.6931 342.764 77.9866 317.014 88.9733C291.266 99.9466 271.333 120.307 260.889 146.267L260.204 147.973C238.644 201.587 264.721 262.747 318.333 284.307L448.885 336.8C474.952 347.293 504.013 346.746 529.456 335.813C531.87 341.506 534.785 346.987 538.149 352.173C511.131 353.76 485.866 365.76 467.604 385.307C447.497 366.2 420.781 355.84 392.257 356.746L328.542 358.773C270.786 360.613 225.295 409.093 227.132 466.853L227.191 468.68C228.063 496.08 239.388 521.64 259.083 540.693C278.732 559.68 304.585 570.146 331.878 570.146C333.002 570.146 334.136 570.133 335.265 570.093L398.981 568.067C427.045 567.173 453.416 555 472.304 534.773C492.41 553.893 519.134 564.24 547.65 563.333L688.292 558.867C716.269 557.973 742.226 546.24 761.38 525.826C780.533 505.413 790.592 478.76 789.701 450.787L789.644 448.946Z" fill="#FDE294"/>
<path d="M688.077 427.093C673.929 442.173 654.755 450.84 634.088 451.493L493.447 455.973C468.036 456.773 444.535 445.48 429.236 425.293C426.556 421.76 422.327 419.746 417.888 419.88C413.451 420.013 409.359 422.307 406.907 426C393.051 446.933 369.824 459.906 344.777 460.693L281.061 462.72C259.927 463.387 239.901 455.613 224.784 441C210.237 426.933 201.871 408.053 201.228 387.813L201.169 385.973C199.812 343.32 233.416 307.506 276.08 306.146L339.795 304.12C340.635 304.093 341.476 304.08 342.311 304.08C366.725 304.08 389.212 315.267 404.005 334.787C406.687 338.333 410.908 340.333 415.352 340.2C419.789 340.067 423.883 337.786 426.333 334.08C440.192 313.146 463.417 300.187 488.463 299.387L629.104 294.907C630.401 294.867 631.693 294.866 632.98 294.88C633.736 294.893 634.487 294.947 635.24 294.973C635.768 295 636.297 295.013 636.823 295.04C637.683 295.107 638.536 295.186 639.389 295.28C639.803 295.32 640.219 295.347 640.629 295.387C641.529 295.493 642.423 295.627 643.316 295.773C643.675 295.827 644.037 295.867 644.396 295.92C645.309 296.08 646.216 296.253 647.121 296.44C647.453 296.507 647.788 296.56 648.119 296.64C649.036 296.84 649.944 297.066 650.852 297.293C651.164 297.373 651.48 297.44 651.792 297.533C652.697 297.773 653.595 298.04 654.489 298.32C654.797 298.413 655.108 298.507 655.415 298.6C656.305 298.893 657.187 299.2 658.065 299.52C658.368 299.64 658.675 299.733 658.976 299.853C659.847 300.187 660.708 300.533 661.567 300.893C661.868 301.026 662.175 301.146 662.475 301.28C663.321 301.64 664.159 302.04 664.992 302.44C665.296 302.587 665.603 302.72 665.904 302.88C666.723 303.28 667.531 303.706 668.335 304.146C668.643 304.32 668.953 304.48 669.26 304.64C670.047 305.08 670.824 305.546 671.597 306.013C671.909 306.213 672.224 306.387 672.535 306.587C673.288 307.053 674.031 307.547 674.769 308.053C675.088 308.267 675.409 308.48 675.725 308.693C676.44 309.2 677.144 309.72 677.845 310.24C678.173 310.48 678.503 310.733 678.828 310.973C679.5 311.493 680.163 312.04 680.82 312.587C681.16 312.867 681.5 313.146 681.835 313.426C682.463 313.96 683.079 314.52 683.692 315.08C684.257 315.6 684.831 316.107 685.383 316.64C699.929 330.693 708.296 349.586 708.94 369.813L708.997 371.653C709.656 392.32 702.225 412.013 688.077 427.093ZM476.608 224.64C455.5 238.227 429.017 240.747 405.769 231.4L275.216 178.893C235.615 162.973 216.352 117.8 232.277 78.1998L232.963 76.4931C240.677 57.3064 255.401 42.2664 274.423 34.1597C293.444 26.0531 314.484 25.8398 333.668 33.5465L464.22 86.0532C487.469 95.3999 504.828 115.56 510.657 139.973C511.688 144.293 514.748 147.84 518.867 149.493C522.985 151.146 527.649 150.707 531.384 148.307C552.492 134.72 578.975 132.2 602.223 141.546L661.368 165.333C700.971 181.253 720.233 226.426 704.308 266.026L703.621 267.746C700.804 274.746 697.068 281.187 692.464 286.973C691.969 286.627 691.463 286.293 690.963 285.946C690.175 285.4 689.385 284.867 688.584 284.333C687.995 283.96 687.399 283.586 686.801 283.213C686.043 282.746 685.28 282.28 684.511 281.826C683.924 281.48 683.337 281.133 682.744 280.8C681.827 280.293 680.9 279.8 679.969 279.307C679.524 279.08 679.084 278.827 678.636 278.6C677.304 277.933 675.955 277.293 674.597 276.68C674.085 276.453 673.568 276.24 673.053 276.013C672.111 275.6 671.164 275.213 670.211 274.826C669.655 274.613 669.099 274.4 668.54 274.187C667.539 273.813 666.532 273.453 665.519 273.107C665.044 272.947 664.571 272.773 664.093 272.613C662.629 272.133 661.156 271.693 659.671 271.28C659.363 271.186 659.051 271.12 658.741 271.04C657.523 270.707 656.297 270.4 655.065 270.12C654.551 270.013 654.035 269.893 653.519 269.787C652.44 269.56 651.355 269.346 650.267 269.146C649.761 269.066 649.256 268.973 648.749 268.88C647.389 268.666 646.024 268.466 644.653 268.293C644.447 268.266 644.241 268.24 644.035 268.213C642.46 268.026 640.877 267.88 639.289 267.773C638.831 267.733 638.368 267.72 637.908 267.693C636.745 267.613 635.581 267.573 634.413 267.533C633.881 267.52 633.349 267.507 632.817 267.507C632.425 267.507 632.037 267.48 631.645 267.48C630.511 267.48 629.372 267.507 628.235 267.533L519.124 271.013C508.455 260.773 500.788 247.44 497.335 232.973C496.304 228.653 493.244 225.107 489.125 223.453C485.007 221.787 480.34 222.24 476.608 224.64ZM736.311 368.946C735.565 345.56 727.175 323.52 712.483 305.707C719.371 297.413 724.933 288.133 729.028 277.96L729.715 276.253C751.275 222.64 725.197 161.48 671.585 139.92L612.44 116.133C586.377 105.653 557.321 106.2 531.88 117.133C521.093 91.6265 500.5 71.12 474.436 60.64L343.885 8.14646C317.916 -2.30687 289.431 -2.01339 263.681 8.97328C237.933 19.9466 218 40.3065 207.556 66.2665L206.871 67.9733C185.311 121.587 211.388 182.747 265 204.307L395.552 256.8C421.619 267.293 450.68 266.746 476.123 255.813C478.537 261.506 481.452 266.987 484.816 272.173C457.797 273.76 432.533 285.76 414.271 305.307C394.164 286.2 367.448 275.84 338.924 276.746L275.209 278.773C217.453 280.613 171.961 329.093 173.799 386.853L173.857 388.68C174.729 416.08 186.055 441.64 205.749 460.693C225.399 479.68 251.252 490.146 278.545 490.146C279.669 490.146 280.803 490.133 281.932 490.093L345.648 488.067C373.712 487.173 400.083 475 418.971 454.773C439.077 473.893 465.801 484.24 494.317 483.333L634.959 478.867C662.936 477.973 688.893 466.24 708.047 445.826C727.2 425.413 737.259 398.76 736.368 370.787L736.311 368.946Z" fill="#393536"/>
<path d="M677.133 323.721C664.145 311.534 647.212 305.147 629.449 305.694L488.807 310.174C481.249 310.414 475.317 316.734 475.557 324.294C475.797 331.854 482.121 337.787 489.677 337.547L630.32 333.067C640.752 332.734 650.74 336.507 658.395 343.694C666.048 350.867 670.447 360.587 670.779 371.041L670.837 372.88C671.075 380.28 677.156 386.134 684.515 386.134C684.663 386.134 684.812 386.134 684.961 386.121C692.519 385.881 698.449 379.56 698.208 372L698.149 370.16C697.584 352.4 690.12 335.907 677.133 323.721Z" fill="#393536"/>
<path d="M460.192 96.0668L329.64 43.56C295.557 29.8534 256.684 46.4402 242.98 80.5202L242.293 82.2267C239.472 89.24 242.872 97.2136 249.888 100.04C256.904 102.854 264.879 99.4536 267.7 92.4402L268.387 90.7335C276.457 70.6668 299.349 60.8936 319.423 68.9736L449.976 121.467C451.651 122.147 453.379 122.467 455.079 122.467C460.504 122.467 465.639 119.213 467.787 113.88C470.608 106.867 467.208 98.8801 460.192 96.0668Z" fill="#393536"/>
<path d="M25.2186 818.192V840.571H61.4598V853.264H25.2186V887H11.3567V805.332H65.8021L65.6351 818.192H25.2186ZM101.28 791.637C101.28 789.744 101.948 788.13 103.284 786.794C104.62 785.346 106.29 784.623 108.294 784.623C110.41 784.623 112.135 785.291 113.471 786.627C114.919 787.963 115.643 789.633 115.643 791.637C115.643 793.641 114.919 795.367 113.471 796.814C112.135 798.262 110.41 798.986 108.294 798.986C106.29 798.986 104.62 798.262 103.284 796.814C101.948 795.367 101.28 793.641 101.28 791.637ZM122.824 791.637C122.824 789.744 123.548 788.13 124.995 786.794C126.443 785.346 128.168 784.623 130.172 784.623C132.065 784.623 133.68 785.291 135.016 786.627C136.463 787.963 137.187 789.633 137.187 791.637C137.187 793.641 136.463 795.367 135.016 796.814C133.568 798.262 131.898 798.986 130.005 798.986C128.113 798.986 126.443 798.262 124.995 796.814C123.548 795.367 122.824 793.641 122.824 791.637ZM119.818 815.854C111.69 815.854 104.843 818.748 99.2756 824.538C93.7085 830.328 90.925 837.342 90.925 845.581C90.925 853.821 93.7085 860.835 99.2756 866.625C104.843 872.303 111.69 875.142 119.818 875.142C127.946 875.142 134.793 872.303 140.36 866.625C145.927 860.835 148.711 853.821 148.711 845.581C148.711 837.342 145.927 830.328 140.36 824.538C134.793 818.748 127.946 815.854 119.818 815.854ZM119.818 887.835C107.57 887.835 97.3271 883.827 89.0879 875.81C80.8488 867.682 76.7292 857.606 76.7292 845.581C76.7292 833.557 80.8488 823.536 89.0879 815.52C97.3271 807.392 107.57 803.328 119.818 803.328C132.065 803.328 142.309 807.392 150.548 815.52C158.787 823.536 162.906 833.557 162.906 845.581C162.906 857.606 158.731 867.627 150.381 875.643C142.03 883.771 131.843 887.835 119.818 887.835ZM180.318 887V805.332H194.179V873.973H231.423V887H180.318ZM274.504 805.332C289.09 805.332 300.335 808.895 308.24 816.021C316.146 823.035 320.098 832.944 320.098 845.748C320.098 858.775 316.201 868.907 308.407 876.144C300.614 883.381 288.979 887 273.502 887H246.447V805.332H274.504ZM274.003 818.025H260.308V873.973H275.506C285.527 873.973 293.154 871.635 298.387 866.959C303.62 862.171 306.236 855.212 306.236 846.082C306.236 827.377 295.492 818.025 274.003 818.025ZM337.73 805.332H351.592V887H337.73V805.332ZM387.978 887H374.116V805.332H395.661L420.211 856.604L444.929 805.332H466.306V887H452.611V823.202L424.053 879.819H416.37L387.978 823.202V887ZM526.716 815.854C518.588 815.854 511.741 818.748 506.174 824.538C500.607 830.328 497.823 837.342 497.823 845.581C497.823 853.821 500.607 860.835 506.174 866.625C511.741 872.303 518.588 875.142 526.716 875.142C534.844 875.142 541.692 872.303 547.259 866.625C552.826 860.835 555.609 853.821 555.609 845.581C555.609 837.342 552.826 830.328 547.259 824.538C541.692 818.748 534.844 815.854 526.716 815.854ZM526.716 887.835C514.469 887.835 504.226 883.827 495.986 875.81C487.747 867.682 483.628 857.606 483.628 845.581C483.628 833.557 487.747 823.536 495.986 815.52C504.226 807.392 514.469 803.328 526.716 803.328C538.964 803.328 549.207 807.392 557.446 815.52C565.685 823.536 569.805 833.557 569.805 845.581C569.805 857.606 565.63 867.627 557.279 875.643C548.929 883.771 538.741 887.835 526.716 887.835ZM643.833 847.252H657.527V875.142C649.845 883.715 638.822 888.002 624.459 888.002C612.323 888.002 602.191 883.994 594.063 875.977C585.936 867.961 581.872 857.94 581.872 845.915C581.872 833.891 585.991 823.814 594.231 815.687C602.581 807.447 612.657 803.328 624.459 803.328C636.261 803.328 646.059 806.724 653.853 813.515L646.505 824.037C640.826 819.249 633.868 816.856 625.628 816.856C617.278 816.856 610.264 819.584 604.585 825.039C599.018 830.384 596.235 837.342 596.235 845.915C596.235 854.489 598.907 861.447 604.251 866.792C609.707 872.025 616.443 874.641 624.459 874.641C632.253 874.641 638.711 872.971 643.833 869.631V847.252ZM707.876 887H693.847V854.767L663.451 805.332H678.649L700.861 842.408L723.241 805.332H738.272L707.876 854.767V887ZM786.486 815.854C778.358 815.854 771.511 818.748 765.944 824.538C760.377 830.328 757.593 837.342 757.593 845.581C757.593 853.821 760.377 860.835 765.944 866.625C771.511 872.303 778.358 875.142 786.486 875.142C794.614 875.142 801.461 872.303 807.028 866.625C812.595 860.835 815.379 853.821 815.379 845.581C815.379 837.342 812.595 830.328 807.028 824.538C801.461 818.748 794.614 815.854 786.486 815.854ZM786.486 887.835C774.238 887.835 763.995 883.827 755.756 875.81C747.517 867.682 743.397 857.606 743.397 845.581C743.397 833.557 747.517 823.536 755.756 815.52C763.995 807.392 774.238 803.328 786.486 803.328C798.733 803.328 808.977 807.392 817.216 815.52C825.455 823.536 829.574 833.557 829.574 845.581C829.574 857.606 825.399 867.627 817.049 875.643C808.698 883.771 798.511 887.835 786.486 887.835ZM894.584 857.272L915.961 887H898.425L878.885 859.443H860.847V887H846.986V805.332H877.381C889.74 805.332 898.592 807.447 903.936 811.678C909.392 815.798 912.12 822.534 912.12 831.887C912.12 845.359 906.274 853.821 894.584 857.272ZM877.883 847.085C885.565 847.085 890.854 845.915 893.748 843.577C896.643 841.239 898.091 837.287 898.091 831.72C898.091 826.375 896.643 822.757 893.748 820.864C890.854 818.86 885.676 817.858 878.217 817.858H860.847V847.085H877.883ZM969.843 815.854C961.715 815.854 954.868 818.748 949.301 824.538C943.734 830.328 940.95 837.342 940.95 845.581C940.95 853.821 943.734 860.835 949.301 866.625C954.868 872.303 961.715 875.142 969.843 875.142C977.971 875.142 984.818 872.303 990.385 866.625C995.952 860.835 998.736 853.821 998.736 845.581C998.736 837.342 995.952 830.328 990.385 824.538C984.818 818.748 977.971 815.854 969.843 815.854ZM969.843 887.835C957.596 887.835 947.352 883.827 939.113 875.81C930.874 867.682 926.755 857.606 926.755 845.581C926.755 833.557 930.874 823.536 939.113 815.52C947.352 807.392 957.596 803.328 969.843 803.328C982.091 803.328 992.334 807.392 1000.57 815.52C1008.81 823.536 1012.93 833.557 1012.93 845.581C1012.93 857.606 1008.76 867.627 1000.41 875.643C992.056 883.771 981.868 887.835 969.843 887.835ZM972.014 798.485H959.99L972.348 781.616L986.21 787.295L972.014 798.485Z" fill="#393536"/>
</svg>
