<svg width="32" height="70" viewBox="0 0 490 1058" fill="none" xmlns="http://www.w3.org/2000/svg">
<path d="M369.067 80.4936C361.507 80.4936 355.374 86.6268 355.374 94.1868V199.053V200.187C355.374 236.147 329.28 266.12 295.027 272.2V223.334C295.027 215.774 288.907 209.64 281.333 209.64C273.773 209.64 267.653 215.774 267.653 223.334V272.2C233.4 266.12 207.293 236.147 207.293 200.187V199.053V94.1868C207.293 86.6268 201.173 80.4936 193.6 80.4936C186.04 80.4936 179.92 86.6268 179.92 94.1868V199.053V200.187V303.907V305.04V408.774V409.907V513.64V514.76V619.627C179.92 670.72 218.24 713.014 267.653 719.334V859.72C267.653 867.28 273.773 873.414 281.333 873.414C288.907 873.414 295.027 867.28 295.027 859.72V719.334C344.44 713.014 382.76 670.72 382.76 619.627V514.76V513.64V409.907V408.774V305.04V303.907V200.187V199.053V94.1868C382.76 86.6268 376.627 80.4936 369.067 80.4936Z" fill="#C9EEFC"/>
<path d="M302.04 223.907V225.04C302.04 261.014 275.946 290.987 241.693 297.053V219.881C265.36 216.854 286.466 205.587 302.04 189.04V223.907ZM302.04 328.774V329.907C302.04 365.88 275.946 395.84 241.693 401.92V324.747C265.36 321.721 286.466 310.454 302.04 293.907V328.774ZM302.04 433.64V434.76C302.04 470.734 275.946 500.707 241.693 506.787V429.614C265.36 426.587 286.466 415.32 302.04 398.774V433.64ZM302.04 539.627C302.04 575.6 275.946 605.56 241.693 611.64V534.467C265.36 531.44 286.466 520.174 302.04 503.627V539.627ZM153.96 539.627V503.627C169.546 520.174 190.653 531.44 214.32 534.467V611.64C180.066 605.56 153.96 575.6 153.96 539.627ZM214.32 429.614V506.787C180.066 500.707 153.96 470.734 153.96 434.76V433.64V398.774C169.546 415.32 190.653 426.587 214.32 429.614ZM214.32 324.747V401.92C180.066 395.84 153.96 365.88 153.96 329.907V328.774V293.907C169.546 310.454 190.653 321.721 214.32 324.747ZM214.32 219.881V297.053C180.066 290.987 153.96 261.014 153.96 225.04V223.907V189.04C169.546 205.587 190.653 216.854 214.32 219.881ZM315.733 0.493569C308.173 0.493569 302.04 6.6268 302.04 14.1868V119.053V120.187C302.04 156.147 275.946 186.12 241.693 192.2V143.334C241.693 135.774 235.573 129.64 228 129.64C220.44 129.64 214.32 135.774 214.32 143.334V192.2C180.066 186.12 153.96 156.147 153.96 120.187V119.053V14.1868C153.96 6.6268 147.84 0.493569 140.266 0.493569C132.706 0.493569 126.586 6.6268 126.586 14.1868V119.053V120.187V223.907V225.04V328.774V329.907V433.64V434.76V539.627C126.586 590.72 164.906 633.014 214.32 639.334V779.72C214.32 787.28 220.44 793.414 228 793.414C235.573 793.414 241.693 787.28 241.693 779.72V639.334C291.106 633.014 329.426 590.72 329.426 539.627V434.76V433.64V329.907V328.774V225.04V223.907V120.187V119.053V14.1868C329.426 6.6268 323.293 0.493569 315.733 0.493569Z" fill="#393536"/>
<path d="M67.9732 892.252H81.668V920.142C73.9856 928.715 62.9629 933.002 48.6 933.002C36.4639 933.002 26.332 928.994 18.2041 920.977C10.0763 912.961 6.01237 902.94 6.01237 890.915C6.01237 878.891 10.132 868.814 18.3711 860.687C26.7217 852.447 36.7979 848.328 48.6 848.328C60.4021 848.328 70.2 851.724 77.9938 858.515L70.6454 869.037C64.967 864.249 58.0082 861.856 49.7691 861.856C41.4186 861.856 34.4041 864.584 28.7258 870.039C23.1588 875.384 20.3753 882.342 20.3753 890.915C20.3753 899.489 23.0474 906.447 28.3918 911.792C33.8474 917.025 40.5835 919.641 48.6 919.641C56.3938 919.641 62.8515 917.971 67.9732 914.631V892.252ZM99.9505 932V850.332H113.812V918.973H151.056V932H99.9505ZM199.648 919.808C205.995 919.808 211.005 917.637 214.679 913.295C218.465 908.953 220.358 903.052 220.358 895.592V850.332H234.22V896.093C234.22 907.672 231.046 916.691 224.7 923.148C218.354 929.606 210.003 932.835 199.648 932.835C189.294 932.835 180.943 929.606 174.597 923.148C168.25 916.691 165.077 907.672 165.077 896.093V850.332H178.772V895.592C178.772 903.163 180.665 909.064 184.45 913.295C188.125 917.637 193.191 919.808 199.648 919.808ZM286.836 862.858V932H272.974V862.858H248.256V850.332H311.553V862.858H286.836ZM384.107 850.332V863.192H340.517V884.903H379.598V897.095H340.517V918.973H385.443V932H326.656V850.332H384.107ZM361.561 843.485H349.703L362.062 826.616L375.924 832.295L361.561 843.485ZM464.36 850.332H478.055V932H463.191L416.929 872.377V932H403.068V850.332H416.929L464.36 911.291V850.332Z" fill="#393536"/>
</svg>
