<svg width="32" height="70" viewBox="0 0 553 1058" fill="none" xmlns="http://www.w3.org/2000/svg">
<path d="M315.28 80.7202H291.4C160.52 80.7202 54.04 187.2 54.04 318.08V320.347C54.04 327.907 60.1733 334.04 67.7333 334.04H224.107V414.667C224.107 432.694 217.707 450.227 206.08 464.014L205.653 464.52C189.866 483.227 181.186 507.027 181.186 531.507V608.094C181.186 674.854 235.493 729.16 302.253 729.16H304.427C371.187 729.16 425.493 674.854 425.493 608.094V531.507C425.493 507.027 416.8 483.227 401.027 464.52L400.6 464C388.973 450.227 382.573 432.694 382.573 414.667V334.04H538.947C546.507 334.04 552.64 327.907 552.64 320.347V318.08C552.64 187.2 446.16 80.7202 315.28 80.7202Z" fill="#F7939E"/>
<path d="M28.3998 226.653C34.3598 116.16 126.12 28.1068 238.066 28.1068H261.947C373.893 28.1068 465.653 116.16 471.613 226.653H28.3998ZM344.773 451.507V528.093C344.773 579.747 302.746 621.773 251.093 621.773H248.92C197.266 621.773 155.226 579.747 155.226 528.093V451.507C155.226 433.467 161.626 415.947 173.266 402.16L173.68 401.653C189.467 382.947 198.16 359.147 198.16 334.667V254.88H301.853V334.667C301.853 359.147 310.546 382.947 326.32 401.653L326.76 402.173C338.373 415.947 344.773 433.467 344.773 451.507ZM261.947 0.720221H238.066C107.186 0.720221 0.706543 107.2 0.706543 238.08V240.347C0.706543 247.907 6.83977 254.04 14.3998 254.04H170.773V334.667C170.773 352.693 164.373 370.227 152.746 384.013L152.32 384.52C136.533 403.227 127.853 427.027 127.853 451.507V528.093C127.853 594.853 182.16 649.16 248.92 649.16H251.093C317.853 649.16 372.16 594.853 372.16 528.093V451.507C372.16 427.027 363.466 403.227 347.693 384.52L347.266 384C335.64 370.227 329.24 352.693 329.24 334.667V254.04H485.613C493.173 254.04 499.307 247.907 499.307 240.347V238.08C499.307 107.2 392.827 0.720221 261.947 0.720221Z" fill="#393536"/>
<path d="M238.067 60.5203C201.28 60.5203 165.947 71.7337 135.92 92.9203C106.573 113.627 84.4 142.254 71.8134 175.72C69.1467 182.8 72.7334 190.694 79.8134 193.36C81.4 193.947 83.0266 194.24 84.6266 194.24C90.16 194.24 95.3735 190.854 97.4402 185.36C119.374 127.067 175.893 87.9069 238.067 87.9069C245.627 87.9069 251.76 81.7735 251.76 74.2135C251.76 66.6535 245.627 60.5203 238.067 60.5203Z" fill="#393536"/>
<path d="M121.973 892.252H135.668V920.142C127.986 928.715 116.963 933.002 102.6 933.002C90.4639 933.002 80.332 928.994 72.2041 920.977C64.0763 912.961 60.0124 902.94 60.0124 890.915C60.0124 878.891 64.132 868.814 72.3711 860.687C80.7217 852.447 90.7979 848.328 102.6 848.328C114.402 848.328 124.2 851.724 131.994 858.515L124.645 869.037C118.967 864.249 112.008 861.856 103.769 861.856C95.4186 861.856 88.4041 864.584 82.7258 870.039C77.1588 875.384 74.3753 882.342 74.3753 890.915C74.3753 899.489 77.0474 906.447 82.3918 911.792C87.8474 917.025 94.5835 919.641 102.6 919.641C110.394 919.641 116.852 917.971 121.973 914.631V892.252ZM191.695 860.854C183.567 860.854 176.72 863.748 171.153 869.538C165.586 875.328 162.802 882.342 162.802 890.581C162.802 898.821 165.586 905.835 171.153 911.625C176.72 917.303 183.567 920.142 191.695 920.142C199.823 920.142 206.67 917.303 212.237 911.625C217.804 905.835 220.588 898.821 220.588 890.581C220.588 882.342 217.804 875.328 212.237 869.538C206.67 863.748 199.823 860.854 191.695 860.854ZM191.695 932.835C179.447 932.835 169.204 928.827 160.965 920.81C152.726 912.682 148.606 902.606 148.606 890.581C148.606 878.557 152.726 868.536 160.965 860.52C169.204 852.392 179.447 848.328 191.695 848.328C203.942 848.328 214.186 852.392 222.425 860.52C230.664 868.536 234.783 878.557 234.783 890.581C234.783 902.606 230.608 912.627 222.258 920.643C213.907 928.771 203.72 932.835 191.695 932.835ZM266.056 932H252.195V850.332H273.739L298.289 901.604L323.007 850.332H344.384V932H330.689V868.202L302.131 924.819H294.448L266.056 868.202V932ZM367.05 932V850.332H398.782C410.25 850.332 418.044 852.781 422.163 857.68C425.838 861.8 427.675 866.532 427.675 871.876C427.675 878.334 425.671 883.122 421.662 886.239C420.326 887.241 418.322 888.355 415.65 889.579C420.772 890.693 424.78 892.975 427.675 896.427C430.681 899.878 432.184 904.165 432.184 909.287C432.184 915.744 429.846 921.144 425.17 925.487C420.605 929.829 413.145 932 402.79 932H367.05ZM380.912 884.235H398.281C408.302 884.235 413.312 880.839 413.312 874.047C413.312 870.151 412.087 867.367 409.638 865.697C407.3 863.915 403.57 863.025 398.448 863.025H380.912V884.235ZM380.912 919.307H402.456C407.801 919.307 411.753 918.472 414.314 916.802C416.875 915.021 418.155 912.014 418.155 907.784C418.155 900.546 412.366 896.928 400.786 896.928H380.912V919.307ZM460.998 913.462L452.814 932H438.117L474.191 850.332H488.888L524.796 932H510.099L501.915 913.462H460.998ZM496.404 900.602L481.54 867.033L466.676 900.602H496.404Z" fill="#393536"/>
</svg>
