<svg width="32" height="70" viewBox="0 0 738 845" fill="none" xmlns="http://www.w3.org/2000/svg">
<path d="M729.197 138.333C724.084 136.213 718.192 137.387 714.276 141.293L654.216 201.36C575.951 123.107 478.755 80.1864 379.085 80.1864C320.22 80.1864 262.885 94.68 208.676 123.267C152.856 152.707 102.84 195.867 60.0187 251.56L56.9054 255.6C53.1214 260.52 53.1214 267.373 56.9054 272.293L60.0187 276.347C102.836 332.027 152.852 375.187 208.677 404.626C262.892 433.226 320.227 447.72 379.085 447.72C430.339 447.72 480.737 436.627 528.877 414.747C574.189 394.147 616.299 364.52 654.22 326.547L714.276 386.6C718.191 390.52 724.081 391.693 729.197 389.573C734.313 387.453 737.649 382.453 737.649 376.92V150.986C737.649 145.44 734.313 140.453 729.197 138.333Z" fill="#C9EEFC"/>
<path d="M656.932 263.867L610.423 217.36C607.807 214.747 604.28 213.32 600.543 213.347C596.843 213.4 593.323 214.947 590.783 217.64C552.807 257.893 510.224 288.907 464.215 309.813C419.656 330.067 373.071 340.333 325.752 340.333C302.129 340.333 278.795 337.787 255.928 332.813C269.497 285.16 276.391 235.16 276.391 183.947C276.391 132.747 269.496 82.7468 255.928 35.0802C278.795 30.1068 302.128 27.5734 325.752 27.5734C373.064 27.5734 419.649 37.8399 464.213 58.0932C510.229 78.9998 552.812 110.013 590.783 150.253C593.323 152.946 596.843 154.507 600.543 154.56C604.227 154.573 607.807 153.16 610.423 150.547L656.932 104.04V263.867ZM31.7346 183.947C87.4612 113.027 155.519 64.5331 229.425 41.9864C242.409 87.3864 249.007 135.08 249.007 183.947C249.007 232.827 242.409 280.52 229.425 325.907C155.519 303.36 87.4626 254.88 31.7346 183.947ZM675.864 58.3333C670.751 56.2133 664.859 57.3865 660.943 61.2932L600.883 121.36C522.617 43.1065 425.421 0.186415 325.752 0.186415C266.887 0.186415 209.552 14.68 155.343 43.2666C99.5225 72.7066 49.5065 115.867 6.6852 171.56L3.57189 175.6C-0.212113 180.52 -0.212113 187.373 3.57189 192.293L6.6852 196.347C49.5025 252.027 99.5186 295.187 155.344 324.626C209.559 353.226 266.893 367.72 325.752 367.72C377.005 367.72 427.404 356.627 475.544 334.747C520.856 314.147 562.965 284.52 600.887 246.547L660.943 306.6C664.857 310.52 670.748 311.693 675.864 309.573C680.98 307.453 684.316 302.453 684.316 296.92V70.9864C684.316 65.4397 680.98 60.4533 675.864 58.3333Z" fill="#393536"/>
<path d="M162.184 165.307C152.52 165.307 144.659 157.453 144.659 147.787C144.659 138.12 152.52 130.267 162.184 130.267C171.847 130.267 179.708 138.12 179.708 147.787C179.708 157.453 171.847 165.307 162.184 165.307ZM162.184 102.88C137.421 102.88 117.275 123.027 117.275 147.787C117.275 172.547 137.421 192.693 162.184 192.693C186.947 192.693 207.093 172.547 207.093 147.787C207.093 123.027 186.947 102.88 162.184 102.88Z" fill="#393536"/>
<path d="M249.357 719V637.332H263.219V672.738H303.635V637.332H317.497V719H303.635V685.598H263.219V719H249.357ZM351.689 700.462L343.506 719H328.809L364.883 637.332H379.58L415.487 719H400.79L392.607 700.462H351.689ZM387.095 687.602L372.231 654.033L357.367 687.602H387.095ZM426.861 719V637.332H440.722V705.973H477.966V719H426.861Z" fill="#393536"/>
</svg>
