<svg width="32" height="70" viewBox="0 0 649 1074" fill="none" xmlns="http://www.w3.org/2000/svg">
<path d="M578.744 604.24L415.175 326.627V108.32H422.971C430.532 108.32 436.663 102.187 436.663 94.6266C436.663 87.0666 430.532 80.9332 422.971 80.9332H268.747C261.185 80.9332 255.055 87.0666 255.055 94.6266C255.055 102.187 261.185 108.32 268.747 108.32H276.543V326.627L112.973 604.24C101.472 622.133 100.66 643.947 110.816 662.667C121.023 681.48 139.895 692.707 161.297 692.707H530.42C551.823 692.707 570.695 681.48 580.901 662.667C591.057 643.947 590.245 622.133 578.744 604.24Z" fill="#C9EEFC"/>
<path d="M503.499 569.6C498.159 579.453 488.285 585.32 477.087 585.32H107.964C96.7653 585.32 86.892 579.44 81.552 569.6C76.212 559.76 76.6679 548.28 82.7719 538.893C82.8813 538.72 82.9879 538.547 83.0893 538.373L194.555 349.2H390.496L501.961 538.387C502.063 538.56 502.169 538.72 502.279 538.893C508.383 548.28 508.839 559.76 503.499 569.6ZM248.699 257.307C249.939 255.2 250.593 252.8 250.593 250.36V28.3199H334.456V250.36C334.456 252.8 335.111 255.2 336.352 257.307L374.36 321.813H210.689L248.699 257.307ZM525.411 524.24L361.841 246.627V28.3199H369.637C377.199 28.3199 383.329 22.1866 383.329 14.6266C383.329 7.06656 377.199 0.933204 369.637 0.933204H215.413C207.852 0.933204 201.721 7.06656 201.721 14.6266C201.721 22.1866 207.852 28.3199 215.413 28.3199H223.209V246.627L59.6399 524.24C48.1386 542.133 47.3266 563.947 57.4826 582.667C67.6893 601.48 86.5613 612.707 107.964 612.707H477.087C498.489 612.707 517.361 601.48 527.568 582.667C537.724 563.947 536.912 542.133 525.411 524.24Z" fill="#393536"/>
<path d="M223.144 463.16C222.177 462.853 220.823 462.427 219.081 461.88C211.575 459.52 207.821 456.627 207.821 453.173C207.821 451.013 208.672 449.253 210.375 447.92C212.077 446.587 214.36 445.92 217.224 445.92C218.965 445.92 221.539 446.413 224.944 447.4C228.349 448.387 230.805 448.88 232.315 448.88C235.024 448.88 237.143 448.16 238.671 446.707C240.199 445.253 240.964 443.253 240.964 440.693C240.964 437.133 238.796 434.173 234.463 431.787C230.129 429.413 224.615 428.213 217.92 428.213C208.827 428.213 201.445 430.72 195.777 435.707C190.108 440.693 187.275 447.12 187.275 454.973C187.275 461.093 189.035 465.96 192.556 469.573C196.077 473.187 202.268 476.32 211.129 478.947C217.243 480.8 221.229 482.547 223.087 484.173C224.944 485.8 225.872 487.947 225.872 490.613C225.872 493.093 224.963 495.16 223.144 496.827C221.325 498.493 219.063 499.32 216.353 499.32C213.219 499.32 209.369 498.6 204.803 497.173C200.237 495.747 197.237 495.027 195.807 495.027C192.904 495.027 190.592 495.813 188.871 497.4C187.148 498.987 186.287 501.08 186.287 503.68C186.287 507.307 188.957 510.48 194.297 513.2C199.637 515.907 206.08 517.253 213.625 517.253C223.453 517.253 231.377 514.64 237.393 509.387C243.411 504.147 246.42 497.293 246.42 488.813C246.42 482.667 244.563 477.52 240.847 473.4C237.132 469.28 231.232 465.867 223.144 463.16Z" fill="#393536"/>
<path d="M308.525 491.973C304.772 496.72 299.8 499.093 293.608 499.093C287.417 499.093 282.444 496.72 278.691 491.973C274.937 487.24 273.061 480.92 273.061 473.026C273.061 464.866 274.919 458.386 278.633 453.586C282.348 448.786 287.34 446.386 293.608 446.386C299.877 446.386 304.868 448.786 308.583 453.586C312.297 458.386 314.155 464.866 314.155 473.026C314.155 480.92 312.279 487.24 308.525 491.973ZM293.608 428.106C281.225 428.106 271.213 432.213 263.571 440.44C255.929 448.666 252.108 459.44 252.108 472.8C252.108 486.186 255.909 496.986 263.513 505.186C271.116 513.386 281.148 517.493 293.608 517.493C306.068 517.493 316.119 513.386 323.761 505.186C331.404 496.986 335.225 486.186 335.225 472.8C335.225 459.48 331.395 448.706 323.732 440.466C316.071 432.226 306.029 428.106 293.608 428.106Z" fill="#393536"/>
<path d="M394.951 539C392.707 537.533 389.281 536.8 384.677 536.8H366.916C378.796 525.04 386.641 516.133 390.452 510.093C394.264 504.067 396.169 498.293 396.169 492.8C396.169 485.493 393.655 479.48 388.624 474.773C383.593 470.08 377.073 467.733 369.064 467.733C364.536 467.733 360.339 468.667 356.468 470.547C352.599 472.413 349.232 475.12 346.369 478.64C344.589 480.88 343.157 483.453 342.073 486.333C340.991 489.213 340.449 491.853 340.449 494.253C340.449 497.187 341.329 499.573 343.089 501.387C344.851 503.213 347.143 504.12 349.968 504.12C352.135 504.12 353.885 503.467 355.22 502.173C356.556 500.88 357.92 498.28 359.312 494.373C360.357 491.547 361.664 489.387 363.231 487.893C364.797 486.413 366.548 485.667 368.483 485.667C370.573 485.667 372.304 486.413 373.679 487.92C375.052 489.44 375.739 491.373 375.739 493.733C375.739 496.48 374.307 500.013 371.444 504.32C368.58 508.64 362.872 515.493 354.321 524.893C353.469 525.867 352.251 527.2 350.664 528.907C342.887 537.373 338.997 542.973 338.997 545.68C338.997 548.693 339.945 550.947 341.841 552.413C343.737 553.88 346.64 554.613 350.548 554.613H384.677C389.281 554.613 392.707 553.88 394.951 552.413C397.195 550.947 398.317 548.693 398.317 545.68C398.317 542.693 397.195 540.48 394.951 539Z" fill="#393536"/>
<path d="M11.3567 866.332H25.2186V906.08L62.6289 866.332H79.9979L47.2639 902.072L80.499 948H64.132L37.0763 912.26L25.2186 925.12V948H11.3567V866.332ZM149.571 922.614H100.804C101.138 927.068 103.198 930.687 106.983 933.47C110.769 936.254 115.167 937.645 120.177 937.645C128.082 937.645 133.983 935.196 137.88 930.297L145.396 938.48C138.715 945.495 129.975 949.002 119.175 949.002C110.268 949.002 102.808 946.052 96.7955 940.151C90.7832 934.249 87.777 926.456 87.777 916.769C87.777 907.305 90.8388 899.623 96.9625 893.722C103.086 887.821 110.49 884.87 119.175 884.87C127.859 884.87 135.097 887.487 140.886 892.72C146.676 897.953 149.571 904.911 149.571 913.596V922.614ZM136.544 912.26C136.544 907.249 134.93 903.297 131.701 900.402C128.583 897.507 124.519 896.06 119.509 896.06C114.499 896.06 110.101 897.563 106.315 900.569C102.641 903.575 100.804 907.472 100.804 912.26H136.544ZM126.189 877.689H114.332L126.69 860.654L140.552 866.332L126.189 877.689ZM177.111 948H164.084V885.872H177.111V897.062C179.226 893.276 182.121 890.326 185.795 888.21C189.581 885.984 193.589 884.87 197.82 884.87C205.057 884.87 210.791 887.041 215.022 891.384C219.253 895.726 221.369 901.905 221.369 909.922V948H208.175V913.93C208.175 902.462 203.443 896.728 193.979 896.728C189.191 896.728 185.183 898.287 181.954 901.404C178.725 904.41 177.111 908.697 177.111 914.264V948ZM238.378 919.274V906.915H277.291V919.274H238.378ZM291.226 916.602C291.226 907.249 294.177 899.623 300.078 893.722C305.979 887.821 313.216 884.87 321.789 884.87C330.028 884.87 336.653 888.377 341.663 895.392V861.322H354.857V948H341.663V938.647C336.987 945.551 329.973 949.002 320.62 949.002C312.492 949.002 305.533 945.996 299.744 939.984C294.065 933.86 291.226 926.066 291.226 916.602ZM323.459 937.311C328.692 937.311 333.09 935.419 336.653 931.633C340.216 927.847 341.997 923.004 341.997 917.103C341.997 911.313 340.16 906.414 336.486 902.406C332.923 898.398 328.525 896.394 323.292 896.394C318.059 896.394 313.55 898.398 309.764 902.406C306.09 906.303 304.253 911.202 304.253 917.103C304.253 923.004 306.146 927.847 309.931 931.633C313.717 935.419 318.226 937.311 323.459 937.311ZM386.73 948H373.703V885.872H386.73V948ZM372.033 867.501C372.033 865.274 372.812 863.381 374.371 861.823C376.041 860.153 378.045 859.318 380.384 859.318C382.61 859.318 384.503 860.153 386.062 861.823C387.732 863.381 388.567 865.274 388.567 867.501C388.567 869.839 387.732 871.843 386.062 873.513C384.503 875.072 382.61 875.852 380.384 875.852C378.045 875.852 376.097 875.016 374.538 873.346C372.868 871.788 372.033 869.839 372.033 867.501ZM434.377 937.311C440.056 937.311 444.732 935.419 448.406 931.633C452.192 927.847 454.084 922.948 454.084 916.936C454.084 910.924 452.192 906.025 448.406 902.239C444.732 898.454 440.056 896.561 434.377 896.561C428.699 896.561 424.023 898.454 420.348 902.239C416.674 906.025 414.837 910.924 414.837 916.936C414.837 922.948 416.674 927.792 420.348 931.466C424.023 935.363 428.699 937.311 434.377 937.311ZM434.377 949.002C425.025 949.002 417.231 945.94 410.996 939.816C404.761 933.581 401.643 925.955 401.643 916.936C401.643 907.918 404.761 900.346 410.996 894.223C417.231 887.988 425.025 884.87 434.377 884.87C443.73 884.87 451.524 887.988 457.759 894.223C463.994 900.346 467.111 907.918 467.111 916.936C467.111 925.621 463.994 933.192 457.759 939.649C451.524 945.885 443.73 949.002 434.377 949.002ZM491.768 885.872L505.129 906.247L518.99 885.872H534.522L512.644 916.268L535.357 948H519.324L504.461 927.291L489.931 948H474.566L496.778 916.268L475.735 885.872H491.768ZM560.279 948H547.252V885.872H560.279V948ZM545.582 867.501C545.582 865.274 546.361 863.381 547.92 861.823C549.59 860.153 551.594 859.318 553.932 859.318C556.159 859.318 558.052 860.153 559.611 861.823C561.281 863.381 562.116 865.274 562.116 867.501C562.116 869.839 561.281 871.843 559.611 873.513C558.052 875.072 556.159 875.852 553.932 875.852C551.594 875.852 549.646 875.016 548.087 873.346C546.417 871.788 545.582 869.839 545.582 867.501ZM575.359 916.602C575.359 907.249 578.31 899.623 584.211 893.722C590.112 887.821 597.349 884.87 605.922 884.87C614.161 884.87 620.786 888.377 625.796 895.392V861.322H638.99V948H625.796V938.647C621.12 945.551 614.105 949.002 604.753 949.002C596.625 949.002 589.666 945.996 583.877 939.984C578.198 933.86 575.359 926.066 575.359 916.602ZM607.592 937.311C612.825 937.311 617.223 935.419 620.786 931.633C624.349 927.847 626.13 923.004 626.13 917.103C626.13 911.313 624.293 906.414 620.619 902.406C617.056 898.398 612.658 896.394 607.425 896.394C602.192 896.394 597.683 898.398 593.897 902.406C590.223 906.303 588.386 911.202 588.386 917.103C588.386 923.004 590.279 927.847 594.064 931.633C597.85 935.419 602.359 937.311 607.592 937.311Z" fill="#393536"/>
</svg>
