<svg width="32" height="70" viewBox="0 0 647 1097" fill="none" xmlns="http://www.w3.org/2000/svg">
<path d="M535.533 408.506C534.973 403.786 532.014 399.706 527.707 397.706C523.4 395.72 518.373 396.093 514.4 398.706C512.187 400.173 480.587 421.266 444.84 458.026V228.92C444.84 199.346 433.08 162.893 414.16 133.76C391.68 99.1596 363.2 80.1062 333.96 80.1062H331.987C302.76 80.1062 274.267 99.1596 251.787 133.76C232.867 162.893 221.107 199.346 221.107 228.92V458.026C185.36 421.266 153.76 400.173 151.547 398.706C147.587 396.093 142.547 395.72 138.24 397.706C133.933 399.706 130.973 403.786 130.413 408.506C129.92 412.573 119.053 509.173 168.787 607.186C206.053 680.653 252.453 740.88 287.253 761.853C288.547 775.68 301.28 786.56 316.747 786.56H317.067C322.92 786.56 328.373 784.986 332.973 782.306C337.573 784.986 343.027 786.56 348.88 786.56H349.2C364.667 786.56 377.4 775.68 378.693 761.853C413.493 740.88 459.893 680.653 497.16 607.186C546.893 509.173 536.027 412.573 535.533 408.506Z" fill="#FDE294"/>
<path d="M419.4 514.8C388.187 576.333 339.28 646.333 306.2 661.066C301.267 663.266 298.08 668.16 298.08 673.573V678.64C297.68 678.866 296.947 679.173 295.867 679.173H295.547C294.467 679.173 293.733 678.866 293.333 678.64V643.92V643.853C293.253 609.506 312.08 550.973 342.453 491.093C374.907 427.133 427.44 379.44 456.04 356.586C455.96 390.106 450.867 452.786 419.4 514.8ZM263.413 679.173C262.333 679.173 261.6 678.866 261.2 678.64V673.573C261.2 668.16 258.013 663.266 253.08 661.066C220.013 646.333 171.093 576.333 139.88 514.8C108.413 452.786 103.32 390.106 103.24 356.586C131.853 379.453 184.373 427.133 216.827 491.093C247.2 550.973 266.027 609.506 265.947 643.88V678.64C265.56 678.866 264.813 679.173 263.733 679.173H263.413ZM195.16 148.92C195.16 124.72 205.467 93.2395 221.413 68.6795C238.427 42.5062 259.293 27.4929 278.653 27.4929H280.627C299.987 27.4929 320.853 42.5062 337.867 68.6795C353.813 93.2395 364.12 124.72 364.12 148.92V408.693C347.493 429.066 331.32 452.533 318.04 478.706C301.653 511 288.587 542.613 279.64 571.026C270.693 542.613 257.627 511 241.24 478.706C227.973 452.533 211.787 429.066 195.16 408.693V148.92ZM482.2 328.506C481.64 323.786 478.68 319.706 474.373 317.706C470.067 315.72 465.04 316.093 461.067 318.706C458.853 320.173 427.253 341.266 391.507 378.026V148.92C391.507 119.346 379.747 82.8929 360.827 53.7596C338.347 19.1596 309.867 0.106227 280.627 0.106227H278.653C249.427 0.106227 220.933 19.1596 198.453 53.7596C179.533 82.8929 167.773 119.346 167.773 148.92V378.026C132.027 341.266 100.427 320.173 98.2133 318.706C94.2533 316.093 89.2134 315.72 84.9067 317.706C80.6 319.706 77.64 323.786 77.08 328.506C76.5867 332.573 65.7201 429.173 115.453 527.186C152.72 600.653 199.12 660.88 233.92 681.853C235.213 695.68 247.947 706.56 263.413 706.56H263.733C269.587 706.56 275.04 704.986 279.64 702.306C284.24 704.986 289.693 706.56 295.547 706.56H295.867C311.333 706.56 324.067 695.68 325.36 681.853C360.16 660.88 406.56 600.653 443.827 527.186C493.56 429.173 482.693 332.573 482.2 328.506Z" fill="#393536"/>
<path d="M245.853 82.3068C239.52 78.1734 231.027 79.9468 226.893 86.2801C217.44 100.76 211.32 116.387 208.72 132.733C206.547 146.4 206.253 160.227 205.987 173.6C205.907 177.533 205.827 181.44 205.693 185.32C205.44 192.88 211.36 199.213 218.92 199.467C219.08 199.467 219.24 199.467 219.387 199.467C226.747 199.467 232.813 193.64 233.067 186.227C233.2 182.24 233.28 178.2 233.36 174.16C233.613 161.707 233.88 148.84 235.76 137.04C237.76 124.52 242.493 112.48 249.827 101.254C253.96 94.9335 252.173 86.4401 245.853 82.3068Z" fill="#393536"/>
<path d="M11.3567 889.332H25.2186V929.08L62.6289 889.332H79.9979L47.2639 925.072L80.499 971H64.132L37.0763 935.26L25.2186 948.12V971H11.3567V889.332ZM127.191 958.808C133.538 958.808 138.548 956.637 142.222 952.295C146.008 947.953 147.901 942.052 147.901 934.592V889.332H161.763V935.093C161.763 946.672 158.589 955.691 152.243 962.148C145.897 968.606 137.546 971.835 127.191 971.835C116.837 971.835 108.486 968.606 102.14 962.148C95.7935 955.691 92.6203 946.672 92.6203 935.093V889.332H106.315V934.592C106.315 942.163 108.208 948.064 111.993 952.295C115.668 956.637 120.734 958.808 127.191 958.808ZM183.482 889.332H197.344V929.08L234.754 889.332H252.123L219.389 925.072L252.624 971H236.257L209.201 935.26L197.344 948.12V971H183.482V889.332ZM303.492 899.854C295.364 899.854 288.516 902.748 282.949 908.538C277.382 914.328 274.599 921.342 274.599 929.581C274.599 937.821 277.382 944.835 282.949 950.625C288.516 956.303 295.364 959.142 303.492 959.142C311.619 959.142 318.467 956.303 324.034 950.625C329.601 944.835 332.384 937.821 332.384 929.581C332.384 921.342 329.601 914.328 324.034 908.538C318.467 902.748 311.619 899.854 303.492 899.854ZM303.492 971.835C291.244 971.835 281.001 967.827 272.762 959.81C264.523 951.682 260.403 941.606 260.403 929.581C260.403 917.557 264.523 907.536 272.762 899.52C281.001 891.392 291.244 887.328 303.492 887.328C315.739 887.328 325.982 891.392 334.222 899.52C342.461 907.536 346.58 917.557 346.58 929.581C346.58 941.606 342.405 951.627 334.055 959.643C325.704 967.771 315.516 971.835 303.492 971.835ZM411.589 941.272L432.967 971H415.431L395.89 943.443H377.853V971H363.991V889.332H394.387C406.746 889.332 415.598 891.447 420.942 895.678C426.398 899.798 429.125 906.534 429.125 915.887C429.125 929.359 423.28 937.821 411.589 941.272ZM394.888 931.085C402.571 931.085 407.86 929.915 410.754 927.577C413.649 925.239 415.097 921.287 415.097 915.72C415.097 910.375 413.649 906.757 410.754 904.864C407.86 902.86 402.682 901.858 395.222 901.858H377.853V931.085H394.888ZM449.105 889.332H462.967V971H449.105V889.332ZM545.782 948.454L554.634 957.472C546.172 967.159 535.706 972.002 523.236 972.002C510.877 972.002 500.578 968.049 492.339 960.144C484.211 952.128 480.147 942.052 480.147 929.915C480.147 917.668 484.322 907.536 492.673 899.52C501.023 891.392 511.545 887.328 524.238 887.328C536.708 887.328 547.23 892.004 555.803 901.357L547.118 910.876C543.221 907.091 539.547 904.474 536.096 903.027C532.644 901.579 528.58 900.856 523.904 900.856C515.553 900.856 508.539 903.528 502.861 908.872C497.294 914.216 494.51 921.008 494.51 929.247C494.51 937.375 497.294 944.278 502.861 949.957C508.428 955.635 515.052 958.474 522.735 958.474C527.411 958.474 531.419 957.695 534.76 956.136C538.211 954.577 541.885 952.016 545.782 948.454ZM583.078 952.462L574.894 971H560.197L596.271 889.332H610.968L646.876 971H632.179L623.995 952.462H583.078ZM618.484 939.602L603.62 906.033L588.756 939.602H618.484Z" fill="#393536"/>
</svg>
