<svg width="32" height="70" viewBox="0 0 521 1110" fill="none" xmlns="http://www.w3.org/2000/svg">
<path d="M403.776 249.027H381.936V203.6C381.936 196.04 375.805 189.92 368.244 189.92H327.184L314.388 92.6401C313.491 85.8268 307.684 80.7333 300.812 80.7333H264.905C258.033 80.7333 252.227 85.8268 251.329 92.6401L238.533 189.92H197.473C189.911 189.92 183.781 196.04 183.781 203.6V249.027H161.941C154.38 249.027 148.249 255.16 148.249 262.72V743.333C148.249 756.027 155.887 773.96 192.269 787.373C216.357 796.253 248.1 801.133 281.649 801.133H284.068C317.617 801.133 349.36 796.253 373.448 787.373C409.831 773.96 417.468 756.027 417.468 743.333V262.72C417.468 255.16 411.337 249.027 403.776 249.027Z" fill="#E8C498"/>
<path d="M336.751 663.333C336.751 672.427 300.68 693.747 230.735 693.747H228.316C158.371 693.747 122.3 672.427 122.3 663.333V196.413H144.14H314.911H336.751V663.333ZM157.832 137.293H301.219V169.027H157.832V137.293ZM223.58 28.1201H235.471L246.231 109.92H212.82L223.58 28.1201ZM350.443 169.027H328.603V123.6C328.603 116.04 322.472 109.92 314.911 109.92H273.851L261.055 12.6401C260.157 5.82678 254.351 0.733344 247.479 0.733344H211.572C204.7 0.733344 198.893 5.82678 197.996 12.6401L185.2 109.92H144.14C136.577 109.92 130.448 116.04 130.448 123.6V169.027H108.608C101.047 169.027 94.916 175.16 94.916 182.72V663.333C94.916 676.027 102.553 693.96 138.936 707.373C163.024 716.253 194.767 721.133 228.316 721.133H230.735C264.284 721.133 296.027 716.253 320.115 707.373C356.497 693.96 364.135 676.027 364.135 663.333V182.72C364.135 175.16 358.004 169.027 350.443 169.027Z" fill="#393536"/>
<path d="M151.551 209.213C143.988 209.213 137.859 215.347 137.859 222.907V626.427C137.859 633.987 143.988 640.12 151.551 640.12C159.112 640.12 165.243 633.987 165.243 626.427V222.907C165.243 215.347 159.112 209.213 151.551 209.213Z" fill="#393536"/>
<path d="M25.2186 984H11.3567V902.332H32.901L57.4516 953.604L82.1691 902.332H103.546V984H89.8516V920.202L61.2928 976.819H53.6103L25.2186 920.202V984ZM159.781 971.808C166.128 971.808 171.138 969.637 174.812 965.295C178.598 960.953 180.491 955.052 180.491 947.592V902.332H194.352V948.093C194.352 959.672 191.179 968.691 184.833 975.148C178.486 981.606 170.136 984.835 159.781 984.835C149.427 984.835 141.076 981.606 134.73 975.148C128.383 968.691 125.21 959.672 125.21 948.093V902.332H138.905V947.592C138.905 955.163 140.798 961.064 144.583 965.295C148.258 969.637 153.324 971.808 159.781 971.808ZM227.094 922.874C227.094 926.326 228.375 928.831 230.935 930.39C233.496 932.282 238.952 934.231 247.302 936.235C256.098 938.351 262.5 941.245 266.509 944.92C270.628 948.594 272.688 953.882 272.688 960.786C272.688 968.023 269.96 973.868 264.505 978.322C259.16 982.775 252.146 985.002 243.461 985.002C230.88 985.002 219.523 980.548 209.391 971.641L218.076 961.287C226.538 968.524 235.111 972.142 243.795 972.142C248.138 972.142 251.645 971.196 254.317 969.303C256.989 967.299 258.325 964.738 258.325 961.621C258.325 958.503 257.1 956.054 254.651 954.272C252.313 952.491 248.082 950.876 241.958 949.429C231.381 946.979 224.032 944.085 219.913 940.744C215.125 937.07 212.731 931.447 212.731 923.876C212.731 916.528 215.404 910.794 220.748 906.674C226.092 902.443 232.94 900.328 241.29 900.328C252.535 900.328 262.166 903.612 270.183 910.181L262.834 920.536C260.385 918.309 257.1 916.528 252.981 915.192C248.861 913.744 244.797 913.021 240.789 913.021C236.669 913.021 233.329 913.911 230.768 915.693C228.319 917.363 227.094 919.757 227.094 922.874ZM320.691 914.858V984H306.829V914.858H282.112V902.332H345.409V914.858H320.691ZM372.035 965.462L363.851 984H349.154L385.229 902.332H399.925L435.833 984H421.136L412.952 965.462H372.035ZM407.441 952.602L392.577 919.033L377.713 952.602H407.441ZM398.923 895.318H386.899L399.257 878.449L413.119 884.128L398.923 895.318ZM494.804 954.272L516.182 984H498.645L479.105 956.443H461.068V984H447.206V902.332H477.602C489.961 902.332 498.812 904.447 504.157 908.678C509.612 912.798 512.34 919.534 512.34 928.887C512.34 942.359 506.495 950.821 494.804 954.272ZM478.103 944.085C485.786 944.085 491.074 942.915 493.969 940.577C496.864 938.239 498.311 934.287 498.311 928.72C498.311 923.375 496.864 919.757 493.969 917.864C491.074 915.86 485.897 914.858 478.437 914.858H461.068V944.085H478.103Z" fill="#393536"/>
</svg>
