<svg width="32" height="70" viewBox="0 0 888 1041" fill="none" xmlns="http://www.w3.org/2000/svg">
<path d="M773.6 262.454C740.48 207.84 693.72 162.147 638.387 130.307C581.32 97.4669 516.173 80.1069 449.973 80.1069C383.773 80.1069 318.627 97.4669 261.573 130.307C206.24 162.147 159.48 207.84 126.347 262.454C123.08 267.854 123.92 274.774 128.373 279.24L363.107 513.96L298.293 578.773C293.84 583.24 293 590.16 296.267 595.56C312 621.493 334.2 643.187 360.48 658.32C387.587 673.92 418.533 682.16 449.973 682.16C481.413 682.16 512.36 673.92 539.467 658.32C565.747 643.187 587.947 621.493 603.68 595.56C606.947 590.16 606.12 583.24 601.653 578.773L536.84 513.96L771.573 279.24C776.027 274.774 776.867 267.854 773.6 262.454Z" fill="#C9EEFC"/>
<path d="M454.467 424.28C451.893 426.853 450.453 430.333 450.453 433.96C450.453 437.6 451.893 441.08 454.467 443.64L521.093 510.28C492.547 550.853 446.773 574.773 396.64 574.773C346.507 574.773 300.733 550.853 272.187 510.28L338.813 443.64C344.16 438.293 344.16 429.627 338.813 424.28L102.12 187.587C132.427 140.92 173.64 101.8 221.893 74.0403C274.8 43.5869 335.227 27.4934 396.64 27.4934C458.053 27.4934 518.48 43.5869 571.387 74.0403C619.64 101.8 660.853 140.92 691.16 187.587L454.467 424.28ZM720.267 182.454C687.147 127.84 640.387 82.1469 585.053 50.3069C527.987 17.4669 462.84 0.106937 396.64 0.106937C330.44 0.106937 265.293 17.4669 208.24 50.3069C152.907 82.1469 106.147 127.84 73.0133 182.454C69.7466 187.854 70.5866 194.774 75.04 199.24L309.773 433.96L244.96 498.773C240.507 503.24 239.667 510.16 242.933 515.56C258.667 541.493 280.867 563.187 307.147 578.32C334.253 593.92 365.2 602.16 396.64 602.16C428.08 602.16 459.027 593.92 486.133 578.32C512.413 563.187 534.613 541.493 550.347 515.56C553.613 510.16 552.787 503.24 548.32 498.773L483.507 433.96L718.24 199.24C722.693 194.774 723.533 187.854 720.267 182.454Z" fill="#393536"/>
<path d="M161.827 183.934C187.2 151.254 219.173 123.347 254.88 102.8C261.427 99.027 263.68 90.6535 259.907 84.0935C256.147 77.5469 247.773 75.2937 241.213 79.0537C198.827 103.454 161.28 137.414 132.64 177.24C128.733 182.694 129.333 190.174 134.08 194.92L298.2 359.04C300.88 361.72 304.387 363.054 307.893 363.054C311.387 363.054 314.893 361.72 317.573 359.04C322.92 353.694 322.92 345.027 317.573 339.68L161.827 183.934Z" fill="#393536"/>
<path d="M39.4144 833.332C51.6619 833.332 60.6247 835.726 66.3031 840.513C72.0928 845.19 74.9876 852.482 74.9876 862.392C74.9876 872.19 72.0928 879.427 66.3031 884.103C60.5134 888.668 51.6062 890.951 39.5814 890.951H25.2186V915H11.3567V833.332H39.4144ZM41.0845 878.592C48.433 878.592 53.5546 877.2 56.4495 874.416C59.4557 871.633 60.9588 867.235 60.9588 861.223C60.9588 855.656 59.233 851.703 55.7814 849.365C52.3299 847.027 46.7629 845.858 39.0804 845.858H25.2186V878.592H41.0845ZM124.977 902.808C131.323 902.808 136.333 900.637 140.007 896.295C143.793 891.953 145.686 886.052 145.686 878.592V833.332H159.548V879.093C159.548 890.672 156.374 899.691 150.028 906.148C143.682 912.606 135.331 915.835 124.977 915.835C114.622 915.835 106.271 912.606 99.925 906.148C93.5786 899.691 90.4054 890.672 90.4054 879.093V833.332H104.1V878.592C104.1 886.163 105.993 892.064 109.779 896.295C113.453 900.637 118.519 902.808 124.977 902.808ZM181.267 915V833.332H195.129V868.738H235.545V833.332H249.407V915H235.545V881.598H195.129V915H181.267ZM283.599 896.462L275.416 915H260.719L296.793 833.332H311.49L347.397 915H332.7L324.517 896.462H283.599ZM319.005 883.602L304.141 850.033L289.278 883.602H319.005ZM389.668 845.858V915H375.806V845.858H351.088V833.332H414.385V845.858H389.668ZM486.939 833.332V846.192H443.349V867.903H482.43V880.095H443.349V901.973H488.275V915H429.488V833.332H486.939ZM516.922 853.874C516.922 857.326 518.203 859.831 520.764 861.39C523.324 863.282 528.78 865.231 537.131 867.235C545.926 869.351 552.329 872.245 556.337 875.92C560.456 879.594 562.516 884.882 562.516 891.786C562.516 899.023 559.788 904.868 554.333 909.322C548.988 913.775 541.974 916.002 533.289 916.002C520.708 916.002 509.351 911.548 499.219 902.641L507.904 892.287C516.366 899.524 524.939 903.142 533.623 903.142C537.966 903.142 541.473 902.196 544.145 900.303C546.817 898.299 548.153 895.738 548.153 892.621C548.153 889.503 546.929 887.054 544.479 885.272C542.141 883.491 537.91 881.876 531.786 880.429C521.209 877.979 513.86 875.085 509.741 871.744C504.953 868.07 502.559 862.447 502.559 854.876C502.559 847.528 505.232 841.794 510.576 837.674C515.92 833.443 522.768 831.328 531.118 831.328C542.364 831.328 551.995 834.612 560.011 841.181L552.663 851.536C550.213 849.309 546.929 847.528 542.809 846.192C538.689 844.744 534.625 844.021 530.617 844.021C526.498 844.021 523.157 844.911 520.597 846.693C518.147 848.363 516.922 850.757 516.922 853.874ZM610.519 845.858V915H596.657V845.858H571.94V833.332H635.237V845.858H610.519ZM683.908 902.808C690.255 902.808 695.265 900.637 698.939 896.295C702.725 891.953 704.617 886.052 704.617 878.592V833.332H718.479V879.093C718.479 890.672 715.306 899.691 708.96 906.148C702.613 912.606 694.263 915.835 683.908 915.835C673.554 915.835 665.203 912.606 658.857 906.148C652.51 899.691 649.337 890.672 649.337 879.093V833.332H663.032V878.592C663.032 886.163 664.925 892.064 668.71 896.295C672.384 900.637 677.45 902.808 683.908 902.808ZM797.65 833.332V846.192H754.06V867.903H793.141V880.095H754.06V901.973H798.986V915H740.198V833.332H797.65ZM816.611 833.332H830.472V873.08L867.883 833.332H885.252L852.518 869.072L885.753 915H869.386L842.33 879.26L830.472 892.12V915H816.611V833.332Z" fill="#393536"/>
<line x1="667.464" y1="817.464" x2="689.464" y2="795.464" stroke="#393536" stroke-width="10"/>
<line x1="696.464" y1="817.464" x2="718.464" y2="795.464" stroke="#393536" stroke-width="10"/>
</svg>
