<svg width="32" height="70" viewBox="0 0 627 1026" fill="none" xmlns="http://www.w3.org/2000/svg">
<path d="M421.107 489.547C490.334 457.12 534.587 388.014 534.587 310.974C534.587 303.414 528.467 297.28 520.893 297.28C513.333 297.28 507.2 303.414 507.2 310.974C507.2 373.254 473.64 429.507 420.2 459.28C416.987 437.574 405.267 418.6 388.533 405.867C431.173 387.413 461.987 346.653 466.16 298.4C478.067 293.387 488.467 281.547 496.213 263.8C505.16 243.347 510.08 216.453 510.08 188.067C510.08 141.56 496.787 100.653 476.213 83.8668C472.267 80.6534 466.854 79.8933 462.174 81.8933C457.494 83.8933 454.307 88.3201 453.907 93.4001C450.534 136.147 434.707 162.387 424.827 162.387C423.067 162.387 421.067 161.493 418.893 159.72C414.96 156.493 409.547 155.733 404.867 157.733C400.173 159.733 397 164.173 396.6 169.253C396.107 175.427 395.853 181.76 395.853 188.067C395.853 216.453 400.787 243.347 409.72 263.8C417.24 281.013 427.254 292.654 438.707 297.907C433.307 349.054 389.92 389.053 337.36 389.053C284.44 389.053 240.827 348.507 235.907 296.84C246.467 291.16 255.693 279.92 262.747 263.8C271.68 243.347 276.6 216.453 276.6 188.067C276.6 181.76 276.36 175.44 275.867 169.253C275.467 164.173 272.28 159.733 267.6 157.733C262.92 155.733 257.507 156.493 253.56 159.72C251.4 161.493 249.4 162.387 247.64 162.387C242.974 162.387 236.907 156.253 231.8 146.387C224.907 133.053 220.2 114.24 218.56 93.4001C218.16 88.3201 214.973 83.8933 210.293 81.8933C205.6 79.88 200.2 80.6534 196.253 83.8668C175.68 100.653 162.387 141.56 162.387 188.067C162.387 216.453 167.307 243.347 176.24 263.8C184.507 282.693 195.76 294.893 208.627 299.267C213.133 347.48 244.227 388.093 287.067 406.253C270.44 419.12 258.853 438.2 255.813 459.987C232.52 447.24 212.52 429.213 197.28 407.053C177.8 378.72 167.507 345.494 167.507 310.974C167.507 303.414 161.387 297.28 153.813 297.28C146.253 297.28 140.12 303.414 140.12 310.974C140.12 351.054 152.093 389.653 174.72 422.56C195.027 452.12 222.667 475.333 255 490.2V663.92C255 686.88 264.453 707.667 279.653 722.613L216.52 785.747C212.613 789.653 211.44 795.547 213.56 800.667C215.68 805.773 220.667 809.12 226.213 809.12H451.28C456.827 809.12 461.813 805.773 463.933 800.667C466.053 795.547 464.88 789.653 460.96 785.747L397.147 721.92C411.947 707.027 421.107 686.533 421.107 663.92V489.547Z" fill="#C9EEFC"/>
<path d="M205.933 701.733L249.133 658.52C249.587 658.733 250.04 658.92 250.493 659.12C251.2 659.44 251.906 659.747 252.626 660.053C253.2 660.293 253.787 660.52 254.373 660.747C255.147 661.04 255.907 661.32 256.68 661.6C257.24 661.8 257.813 661.987 258.373 662.174C259.187 662.44 260.013 662.693 260.84 662.933C261.387 663.093 261.933 663.253 262.48 663.4C263.333 663.64 264.213 663.853 265.08 664.053C265.6 664.187 266.133 664.307 266.667 664.427C267.573 664.627 268.48 664.787 269.4 664.96C269.907 665.053 270.413 665.147 270.92 665.227C271.88 665.387 272.84 665.507 273.813 665.627C274.293 665.68 274.773 665.76 275.253 665.814C276.28 665.92 277.333 666 278.387 666.067C278.8 666.093 279.213 666.147 279.626 666.16C281.08 666.24 282.546 666.28 284.026 666.28H285.413C286.907 666.28 288.4 666.24 289.88 666.16C290.373 666.133 290.866 666.08 291.36 666.04C292.333 665.974 293.32 665.907 294.293 665.8C294.893 665.733 295.493 665.64 296.093 665.574C296.933 665.454 297.786 665.347 298.626 665.214C299.293 665.107 299.947 664.973 300.6 664.853C301.36 664.707 302.12 664.56 302.88 664.4C303.587 664.253 304.293 664.08 304.987 663.907C305.667 663.747 306.347 663.573 307.013 663.387C307.773 663.187 308.52 662.974 309.28 662.747C309.853 662.574 310.427 662.387 311.013 662.187C311.827 661.92 312.64 661.653 313.453 661.36C313.867 661.213 314.28 661.04 314.693 660.88C316.906 660.04 319.107 659.133 321.253 658.093L364.893 701.733H205.933ZM284.026 336.427H285.413C315.72 336.427 340.387 361.094 340.387 391.414V400.493C340.387 400.533 340.387 400.587 340.387 400.627V446.28C340.387 476.587 315.72 501.253 285.413 501.253H284.026C253.706 501.253 229.053 476.587 229.053 446.28V401.053C229.053 401.027 229.053 401 229.053 400.974V391.414C229.053 361.094 253.706 336.427 284.026 336.427ZM314.853 630.307C314.347 630.64 313.84 630.947 313.333 631.253C312.84 631.547 312.347 631.827 311.853 632.107C311.04 632.547 310.227 632.974 309.413 633.374C308.907 633.614 308.4 633.84 307.907 634.067C307.28 634.347 306.64 634.627 306 634.88C305.547 635.067 305.093 635.253 304.64 635.427C303.653 635.787 302.667 636.133 301.653 636.453C301.307 636.56 300.96 636.64 300.613 636.747C299.8 636.974 298.973 637.2 298.147 637.4C297.773 637.48 297.4 637.573 297.026 637.653C295.906 637.893 294.787 638.107 293.653 638.28C293.453 638.307 293.267 638.333 293.067 638.36C292.053 638.493 291.04 638.613 290.013 638.693C289.693 638.72 289.36 638.747 289.04 638.76C287.84 638.84 286.627 638.893 285.413 638.893H284.026C282.84 638.893 281.653 638.854 280.467 638.774C280.16 638.747 279.84 638.72 279.533 638.693C278.533 638.613 277.546 638.52 276.56 638.374C276.36 638.347 276.173 638.334 275.973 638.307C274.813 638.134 273.64 637.92 272.493 637.667C272.266 637.627 272.04 637.56 271.813 637.52C270.84 637.293 269.88 637.04 268.92 636.774C268.68 636.707 268.44 636.64 268.2 636.574C267.08 636.227 265.973 635.867 264.88 635.453C264.693 635.387 264.507 635.307 264.32 635.227C263.4 634.88 262.493 634.507 261.6 634.093C261.32 633.973 261.04 633.853 260.76 633.72C259.733 633.24 258.72 632.733 257.733 632.187C257.52 632.08 257.32 631.947 257.12 631.84C256.307 631.374 255.507 630.893 254.72 630.4C239.307 620.653 229.053 603.467 229.053 583.92V507.547C243.64 520.654 262.92 528.64 284.026 528.64H285.413C306.52 528.64 325.8 520.654 340.387 507.547V583.92C340.387 603.413 330.187 620.547 314.853 630.307ZM136.44 108.067C136.44 86.6001 139.6 67.8132 144.293 53.3199C153.853 88.1732 172.187 109.774 194.307 109.774C194.827 109.774 195.36 109.76 195.88 109.733C195.693 133.48 191.507 156.387 184.32 172.84C178.4 186.374 172.093 192.24 167.813 193.467C167.133 193.493 166.453 193.56 165.8 193.693C161.587 193.387 154.56 187.827 148 172.84C140.653 156.014 136.44 132.4 136.44 108.067ZM369.92 109.733C370.44 109.76 370.973 109.774 371.493 109.774C393.626 109.774 411.96 88.1468 421.52 53.2668C426.707 69.7468 429.36 90.0534 429.36 108.067C429.36 132.4 425.147 156.013 417.787 172.827C411.773 186.6 405.36 192.427 401.08 193.52C400.613 193.467 400.12 193.44 399.64 193.44C399.147 193.44 398.667 193.467 398.187 193.52C393.92 192.427 387.493 186.6 381.48 172.84C374.293 156.387 370.107 133.48 369.92 109.733ZM367.773 409.547C437 377.12 481.253 308.014 481.253 230.974C481.253 223.414 475.133 217.28 467.56 217.28C460 217.28 453.867 223.414 453.867 230.974C453.867 293.254 420.307 349.507 366.867 379.28C363.653 357.574 351.933 338.6 335.2 325.867C377.84 307.413 408.653 266.653 412.826 218.4C424.733 213.387 435.133 201.547 442.88 183.8C451.827 163.347 456.747 136.453 456.747 108.067C456.747 61.5601 443.453 20.6534 422.88 3.86677C418.933 0.653442 413.52 -0.106662 408.84 1.89334C404.16 3.89334 400.973 8.32011 400.573 13.4001C397.2 56.1468 381.373 82.3866 371.493 82.3866C369.733 82.3866 367.733 81.4932 365.56 79.7199C361.626 76.4932 356.213 75.7334 351.533 77.7334C346.84 79.7334 343.667 84.1732 343.267 89.2532C342.773 95.4266 342.52 101.76 342.52 108.067C342.52 136.453 347.453 163.347 356.387 183.8C363.907 201.013 373.92 212.654 385.373 217.907C379.973 269.054 336.586 309.053 284.026 309.053C231.106 309.053 187.493 268.507 182.573 216.84C193.133 211.16 202.36 199.92 209.413 183.8C218.347 163.347 223.267 136.453 223.267 108.067C223.267 101.76 223.027 95.4399 222.533 89.2532C222.133 84.1732 218.947 79.7334 214.267 77.7334C209.587 75.7334 204.173 76.4932 200.226 79.7199C198.066 81.4932 196.067 82.3866 194.307 82.3866C189.64 82.3866 183.573 76.2532 178.467 66.3866C171.573 53.0532 166.866 34.2401 165.226 13.4001C164.826 8.32011 161.64 3.89334 156.96 1.89334C152.266 -0.119996 146.867 0.653442 142.92 3.86677C122.347 20.6534 109.053 61.5601 109.053 108.067C109.053 136.453 113.973 163.347 122.907 183.8C131.173 202.693 142.426 214.893 155.293 219.267C159.8 267.48 190.893 308.093 233.733 326.253C217.107 339.12 205.52 358.2 202.48 379.987C179.187 367.24 159.187 349.213 143.947 327.053C124.467 298.72 114.173 265.494 114.173 230.974C114.173 223.414 108.053 217.28 100.48 217.28C92.9199 217.28 86.7866 223.414 86.7866 230.974C86.7866 271.054 98.76 309.653 121.387 342.56C141.693 372.12 169.333 395.333 201.667 410.2V583.92C201.667 606.88 211.12 627.667 226.32 642.614L163.187 705.747C159.28 709.653 158.106 715.547 160.226 720.667C162.346 725.773 167.333 729.12 172.88 729.12H397.947C403.493 729.12 408.48 725.773 410.6 720.667C412.72 715.547 411.546 709.653 407.626 705.747L343.813 641.92C358.613 627.027 367.773 606.533 367.773 583.92V409.547Z" fill="#393536"/>
<path d="M58.9546 870.272L80.332 900H62.7959L43.2557 872.443H25.2186V900H11.3567V818.332H41.7526C54.1113 818.332 62.9629 820.447 68.3072 824.678C73.7629 828.798 76.4907 835.534 76.4907 844.887C76.4907 858.359 70.6454 866.821 58.9546 870.272ZM42.2536 860.085C49.9361 860.085 55.2247 858.915 58.1196 856.577C61.0144 854.239 62.4619 850.287 62.4619 844.72C62.4619 839.375 61.0144 835.757 58.1196 833.864C55.2247 831.86 50.0474 830.858 42.5876 830.858H25.2186V860.085H42.2536ZM107.994 881.462L99.8102 900H85.1133L121.188 818.332H135.884L171.792 900H157.095L148.911 881.462H107.994ZM143.4 868.602L128.536 835.033L113.672 868.602H143.4ZM134.882 811.318H122.858L135.216 794.449L149.078 800.128L134.882 811.318ZM183.165 818.332H197.027V858.08L234.437 818.332H251.807L219.073 854.072L252.308 900H235.941L208.885 864.26L197.027 877.12V900H183.165V818.332ZM279.293 831.192V853.571H315.534V866.264H279.293V900H265.431V818.332H319.876L319.709 831.192H279.293ZM393.599 818.332V831.192H350.01V852.903H389.09V865.095H350.01V886.973H394.935V900H336.148V818.332H393.599ZM371.053 811.485H359.195L371.554 794.616L385.416 800.295L371.053 811.485ZM412.56 900V818.332H426.422V886.973H463.665V900H412.56ZM536.14 818.332V831.192H492.551V852.903H531.631V865.095H492.551V886.973H537.476V900H478.689V818.332H536.14ZM513.594 811.485H501.736L514.095 794.616L527.957 800.295L513.594 811.485ZM555.101 818.332H568.963V858.08L606.373 818.332H623.742L591.008 854.072L624.243 900H607.876L580.82 864.26L568.963 877.12V900H555.101V818.332Z" fill="#393536"/>
</svg>
