<svg width="32" height="70" viewBox="0 0 800 1036" fill="none" xmlns="http://www.w3.org/2000/svg">
<path d="M261.013 412.72C261.027 412.72 261.026 412.72 261.026 412.72C295.426 412.72 323.867 385.44 335.253 341.533C341.8 316.253 342.226 288.173 336.426 264.506C329.613 236.706 315.213 218.64 295.893 213.626C292.426 212.733 288.813 212.28 285.173 212.28C267.453 212.28 248.533 223.093 231.893 242.733C217.173 260.106 205.32 283.266 199.347 306.293C192.76 331.68 193.68 355.026 202 373.813C210.293 392.546 225.493 405.626 244.813 410.626C250.16 412.013 255.613 412.72 261.013 412.72Z" fill="#F7939E"/>
<path d="M393.213 500.787C413.16 500.787 431.159 491.947 443.893 475.894C456.666 459.8 463.413 437.427 463.413 411.2C463.413 357.32 434.586 297.28 393.213 297.28C351.84 297.28 323.013 357.32 323.013 411.2C323.013 430.6 326.72 447.88 333.813 462.08C318.106 441.414 298.146 426.814 277.4 426.814C274.013 426.814 270.666 427.214 267.426 427.987C227.213 437.667 213.226 502.787 225.826 555.187C238.693 608.627 272.533 627.68 299.906 627.68C304.933 627.68 310.026 627.067 315.04 625.867C334.44 621.187 349.866 608.387 358.493 589.8C367.133 571.16 368.466 547.827 362.333 522.334C358.746 507.44 352.573 492.187 344.573 478.347C357.16 492.84 374.306 500.787 393.213 500.787Z" fill="#F7939E"/>
<path d="M557.453 438.587C550.48 434.347 542.44 432.2 533.546 432.2C502.04 432.2 461.96 460.467 438.253 499.413C424.626 521.827 418.76 544.44 421.293 564.827C423.826 585.16 434.613 602.067 451.653 612.44C461.693 618.547 473.093 621.787 484.626 621.787C512.28 621.787 539.093 603.787 558.2 572.4C586.2 526.373 592.786 460.093 557.453 438.587Z" fill="#F7939E"/>
<path d="M474.826 402.493C487.56 418.547 505.56 427.387 525.52 427.387C545.466 427.387 563.466 418.547 576.2 402.493C588.973 386.4 595.72 364.027 595.72 337.8C595.72 283.92 566.88 223.88 525.52 223.88C484.146 223.88 455.32 283.92 455.32 337.8C455.32 364.027 462.066 386.4 474.826 402.493Z" fill="#F7939E"/>
<path d="M410.12 282.96H410.133C413.133 282.96 416.2 282.747 419.24 282.32C439 279.547 455.587 268.293 465.973 250.626C476.373 232.92 479.947 209.827 476.307 183.853C472.853 159.253 463.16 134.08 449.707 114.787C434.24 92.6 415.453 80.3734 396.826 80.3734C394.866 80.3734 392.893 80.5067 390.96 80.7867C350 86.5333 329.786 149.987 337.28 203.36C344.053 251.707 372.653 282.96 410.12 282.96Z" fill="#F7939E"/>
<path d="M172.52 233.16C177.494 213.986 187.307 194.773 199.454 180.44C210.48 167.426 222.587 159.653 231.84 159.653C233.16 159.653 234.454 159.826 235.68 160.133C244.534 162.44 252.32 173.986 256.493 191.026C261.187 210.146 260.774 233.933 255.414 254.653C247.307 285.92 229.013 305.346 207.693 305.333C204.6 305.333 201.467 304.933 198.347 304.12C173.174 297.6 163.04 269.746 172.52 233.16ZM207.68 332.72C207.694 332.72 207.693 332.72 207.693 332.72C242.093 332.72 270.534 305.44 281.92 261.533C288.467 236.253 288.893 208.173 283.093 184.506C276.28 156.706 261.88 138.64 242.56 133.626C239.093 132.733 235.48 132.28 231.84 132.28C214.12 132.28 195.2 143.093 178.56 162.733C163.84 180.106 151.987 203.266 146.014 226.293C139.427 251.68 140.347 275.026 148.667 293.813C156.96 312.546 172.16 325.626 191.48 330.626C196.827 332.013 202.28 332.72 207.68 332.72Z" fill="#393536"/>
<path d="M204.413 294.48C210.506 294.48 216.053 290.387 217.653 284.227L243.333 185.2C245.227 177.88 240.827 170.413 233.507 168.507C226.187 166.6 218.72 171.013 216.826 178.333L191.146 277.347C189.253 284.667 193.653 292.147 200.973 294.04C202.12 294.333 203.28 294.48 204.413 294.48Z" fill="#393536"/>
<path d="M239.04 393.133C237.267 385.786 229.88 381.253 222.52 383.027C215.173 384.8 210.653 392.186 212.413 399.546L236.347 499C237.853 505.266 243.467 509.493 249.653 509.493C250.707 509.493 251.787 509.36 252.867 509.106C260.213 507.333 264.747 499.947 262.973 492.587L239.04 393.133Z" fill="#393536"/>
<path d="M280.32 498.28C275.213 509.28 266.56 516.52 255.307 519.24C252.387 519.934 249.453 520.294 246.573 520.294C224.947 520.294 206.773 500.547 199.12 468.774C188.227 423.454 201.76 379.12 220.507 374.614C221.64 374.347 222.84 374.2 224.067 374.2C233.293 374.2 245.293 382.094 256.16 395.294C268.146 409.867 277.707 429.347 282.373 448.747C287.053 468.174 286.333 485.294 280.32 498.28ZM339.88 244.654C359.147 244.654 382.693 284.587 382.693 331.2C382.693 368.987 365.893 393.4 339.88 393.4C313.867 393.4 297.067 368.987 297.067 331.2C297.067 284.587 320.613 244.654 339.88 244.654ZM339.88 420.787C359.827 420.787 377.826 411.947 390.56 395.894C403.333 379.8 410.08 357.427 410.08 331.2C410.08 277.32 381.253 217.28 339.88 217.28C298.507 217.28 269.68 277.32 269.68 331.2C269.68 350.6 273.387 367.88 280.48 382.08C264.773 361.414 244.813 346.814 224.067 346.814C220.68 346.814 217.333 347.214 214.093 347.987C173.88 357.667 159.893 422.787 172.493 475.187C185.36 528.627 219.2 547.68 246.573 547.68C251.6 547.68 256.693 547.067 261.707 545.867C281.107 541.187 296.533 528.387 305.16 509.8C313.8 491.16 315.133 467.827 309 442.334C305.413 427.44 299.24 412.187 291.24 398.347C303.827 412.84 320.973 420.787 339.88 420.787Z" fill="#393536"/>
<path d="M339.88 382.986C347.44 382.986 353.573 376.853 353.573 369.293V267C353.573 259.44 347.44 253.306 339.88 253.306C332.32 253.306 326.187 259.44 326.187 267V369.293C326.187 376.853 332.32 382.986 339.88 382.986Z" fill="#393536"/>
<path d="M481.467 478.16C467.453 501.2 449.16 514.4 431.293 514.4C424.693 514.4 418.387 512.6 412.56 509.053C390.333 495.533 388.68 465.933 408.32 433.653C426.467 403.84 458.72 379.587 480.213 379.587C484.013 379.587 487.267 380.387 489.88 381.987C506.347 392 505.693 438.347 481.467 478.16ZM504.12 358.587C497.147 354.347 489.107 352.2 480.213 352.2C448.707 352.2 408.627 380.467 384.92 419.413C371.293 441.827 365.427 464.44 367.96 484.827C370.493 505.16 381.28 522.067 398.32 532.44C408.36 538.547 419.76 541.787 431.293 541.787C458.947 541.787 485.76 523.787 504.867 492.4C532.867 446.373 539.453 380.093 504.12 358.587Z" fill="#393536"/>
<path d="M485.387 389.373C478.933 385.44 470.507 387.493 466.573 393.946L413.4 481.333C409.466 487.787 411.52 496.213 417.973 500.146C420.2 501.506 422.653 502.146 425.08 502.146C429.693 502.146 434.213 499.8 436.787 495.573L489.96 408.187C493.893 401.72 491.84 393.293 485.387 389.373Z" fill="#393536"/>
<path d="M472.186 171.253C491.453 171.253 515 211.187 515 257.8C515 295.587 498.186 320 472.186 320C446.173 320 429.373 295.587 429.373 257.8C429.373 211.187 452.906 171.253 472.186 171.253ZM421.493 322.493C434.226 338.547 452.226 347.387 472.186 347.387C492.133 347.387 510.133 338.547 522.866 322.493C535.64 306.4 542.386 284.027 542.386 257.8C542.386 203.92 513.546 143.88 472.186 143.88C430.813 143.88 401.986 203.92 401.986 257.8C401.986 284.027 408.733 306.4 421.493 322.493Z" fill="#393536"/>
<path d="M472.187 309.587C479.747 309.587 485.88 303.454 485.88 295.894V193.6C485.88 186.04 479.747 179.907 472.187 179.907C464.627 179.907 458.493 186.04 458.493 193.6V295.894C458.493 303.454 464.627 309.587 472.187 309.587Z" fill="#393536"/>
<path d="M341.44 27.8933C342.107 27.8 342.8 27.76 343.493 27.76C352.627 27.76 364 36.2401 373.92 50.4535C384.987 66.3201 392.987 87.1735 395.854 107.653C401.107 145.08 387.853 171.587 362.093 175.2C360.32 175.453 358.533 175.587 356.8 175.587C333.427 175.573 315.907 154.107 311.054 119.547C304.587 73.4 322.347 30.5733 341.44 27.8933ZM356.787 202.96H356.8C359.8 202.96 362.867 202.747 365.907 202.32C385.667 199.547 402.254 188.293 412.64 170.627C423.04 152.92 426.614 129.827 422.974 103.853C419.52 79.2535 409.827 54.0801 396.374 34.7868C380.907 12.6001 362.12 0.373515 343.493 0.373515C341.533 0.373515 339.56 0.506796 337.627 0.786796C296.667 6.53346 276.453 69.9866 283.947 123.36C290.72 171.707 319.32 202.96 356.787 202.96Z" fill="#393536"/>
<path d="M345.187 153.226C346.147 160.066 352.013 165.026 358.733 165.026C359.36 165.026 360 164.973 360.653 164.88C368.147 163.84 373.36 156.92 372.307 149.426L358.093 48.1199C357.053 40.6265 350.12 35.4265 342.64 36.4665C335.147 37.5198 329.933 44.4398 330.973 51.9331L345.187 153.226Z" fill="#393536"/>
<path d="M22.3794 848.874C22.3794 852.326 23.6598 854.831 26.2206 856.39C28.7814 858.282 34.2371 860.231 42.5876 862.235C51.3835 864.351 57.7856 867.245 61.7938 870.92C65.9134 874.594 67.9732 879.882 67.9732 886.786C67.9732 894.023 65.2454 899.868 59.7897 904.322C54.4454 908.775 47.4309 911.002 38.7464 911.002C26.1649 911.002 14.8082 906.548 4.67629 897.641L13.3608 887.287C21.8227 894.524 30.3959 898.142 39.0804 898.142C43.4227 898.142 46.9299 897.196 49.6021 895.303C52.2742 893.299 53.6103 890.738 53.6103 887.621C53.6103 884.503 52.3856 882.054 49.9361 880.272C47.5979 878.491 43.367 876.876 37.2433 875.429C26.666 872.979 19.3175 870.085 15.1979 866.744C10.4103 863.07 8.01649 857.447 8.01649 849.876C8.01649 842.528 10.6887 836.794 16.033 832.674C21.3773 828.443 28.2247 826.328 36.5753 826.328C47.8206 826.328 57.4515 829.612 65.468 836.181L58.1196 846.536C55.6701 844.309 52.3856 842.528 48.266 841.192C44.1464 839.744 40.0825 839.021 36.0742 839.021C31.9546 839.021 28.6144 839.911 26.0536 841.693C23.6041 843.363 22.3794 845.757 22.3794 848.874ZM126.832 840.858H80.7371V828.332H146.038V839.021L98.4402 896.973V897.307H146.706V910H79.234V899.311L126.832 841.192V840.858ZM221.474 828.332V841.192H177.885V862.903H216.965V875.095H177.885V896.973H222.81V910H164.023V828.332H221.474ZM282.187 840.858H236.093V828.332H301.394V839.021L253.796 896.973V897.307H302.062V910H234.589V899.311L282.187 841.192V840.858ZM330.902 891.462L322.718 910H308.021L344.096 828.332H358.793L394.7 910H380.003L371.819 891.462H330.902ZM366.308 878.602L351.444 845.033L336.58 878.602H366.308ZM357.791 821.318H345.766L358.125 804.449L371.986 810.128L357.791 821.318ZM419.935 910H406.073V828.332H427.618L452.168 879.604L476.886 828.332H498.263V910H484.568V846.202L456.01 902.819H448.327L419.935 846.202V910ZM534.791 910H520.929V828.332H542.473L567.024 879.604L591.741 828.332H613.119V910H599.424V846.202L570.865 902.819H563.183L534.791 846.202V910ZM647.308 891.462L639.125 910H624.428L660.502 828.332H675.199L711.106 910H696.409L688.226 891.462H647.308ZM682.714 878.602L667.85 845.033L652.986 878.602H682.714ZM779.096 870.252H792.791V898.142C785.109 906.715 774.086 911.002 759.723 911.002C747.587 911.002 737.455 906.994 729.327 898.977C721.199 890.961 717.135 880.94 717.135 868.915C717.135 856.891 721.255 846.814 729.494 838.687C737.845 830.447 747.921 826.328 759.723 826.328C771.525 826.328 781.323 829.724 789.117 836.515L781.768 847.037C776.09 842.249 769.131 839.856 760.892 839.856C752.542 839.856 745.527 842.584 739.849 848.039C734.282 853.384 731.498 860.342 731.498 868.915C731.498 877.489 734.17 884.447 739.515 889.792C744.97 895.025 751.707 897.641 759.723 897.641C767.517 897.641 773.975 895.971 779.096 892.631V870.252Z" fill="#393536"/>
</svg>
