<svg width="32" height="70" viewBox="0 0 654 1101" fill="none" xmlns="http://www.w3.org/2000/svg">
<path d="M555.04 172.32C547.146 152.787 533.386 136.067 515.92 124.6L508.6 91.5068C507.546 86.7068 503.986 82.8402 499.28 81.3869C494.573 79.9335 489.453 81.1068 485.866 84.4801L461.666 107.2C460.253 107.147 458.853 107.12 457.453 107.12C411.88 107.12 372.2 136.4 358.733 179.973L340.266 239.734C331.866 266.947 335.066 296 348.653 320.427C323.653 332.934 304.613 355.107 296.213 382.32L277.733 442.08C269.333 469.28 272.546 498.334 286.12 522.76C261.133 535.267 242.08 557.454 233.68 584.654L215.213 644.414C198.386 698.867 228.986 756.854 283.44 773.68L285.173 774.214C295.12 777.294 305.386 778.854 315.72 778.854C361.293 778.854 400.959 749.56 414.426 705.987L432.906 646.227C441.306 619.014 438.093 589.96 424.52 565.534C449.506 553.027 468.559 530.853 476.959 503.64L495.426 443.88C503.839 416.68 500.626 387.614 487.053 363.2C512.04 350.694 531.079 328.507 539.493 301.307L557.959 241.547C564.973 218.867 563.933 194.28 555.04 172.32Z" fill="#C9E884"/>
<path d="M439.04 145.2L422.786 197.787C418.173 212.72 404.026 223.147 388.386 223.147C384.813 223.147 381.253 222.613 377.8 221.547L376.266 221.067C367.106 218.24 359.586 211.987 355.106 203.48C350.613 194.973 349.693 185.24 352.52 176.08L368.773 123.48C373.386 108.56 387.533 98.1332 403.173 98.1332C406.746 98.1332 410.32 98.6665 413.76 99.7332L415.293 100.213C434.24 106.066 444.893 126.253 439.04 145.2ZM423.373 74.0399L421.853 73.5732C415.773 71.6932 409.493 70.7465 403.173 70.7465C375.2 70.7465 350.866 88.6932 342.613 115.4L326.36 168C321.373 184.147 322.973 201.28 330.88 216.267C338.786 231.24 352.04 242.24 368.186 247.227L369.706 247.707C375.786 249.587 382.066 250.533 388.386 250.533C416.36 250.533 440.693 232.587 448.946 205.88L465.2 153.28C475.52 119.906 456.746 84.3599 423.373 74.0399Z" fill="#393536"/>
<path d="M376.507 347.547L360.253 400.133C355.64 415.067 341.493 425.493 325.853 425.493C322.28 425.493 318.72 424.947 315.266 423.88L313.746 423.413C304.586 420.573 297.067 414.333 292.573 405.827C288.08 397.307 287.16 387.573 289.987 378.413L306.253 325.827C310.867 310.893 325 300.467 340.64 300.467C344.227 300.467 347.787 301.013 351.24 302.08L352.76 302.547C361.92 305.387 369.44 311.627 373.933 320.133C378.426 328.653 379.347 338.387 376.507 347.547ZM360.853 276.387L359.32 275.92C353.253 274.04 346.96 273.08 340.64 273.08C312.68 273.08 288.333 291.027 280.08 317.747L263.826 370.333C253.52 403.707 272.28 439.253 305.653 449.573L307.173 450.04C313.253 451.92 319.533 452.88 325.853 452.88C353.827 452.88 378.16 434.933 386.413 408.213L402.68 355.627C407.666 339.48 406.053 322.333 398.146 307.36C390.24 292.373 377 281.373 360.853 276.387Z" fill="#393536"/>
<path d="M313.973 549.88L297.72 602.48C293.107 617.4 278.973 627.827 263.333 627.827C259.747 627.827 256.187 627.293 252.733 626.227L251.213 625.747C232.267 619.893 221.613 599.707 227.467 580.76L243.72 528.16C248.333 513.24 262.48 502.813 278.12 502.813C281.693 502.813 285.253 503.347 288.707 504.413L290.227 504.893C299.387 507.72 306.907 513.96 311.4 522.48C315.893 530.987 316.813 540.72 313.973 549.88ZM298.32 478.72L296.787 478.253C290.72 476.373 284.427 475.427 278.12 475.427C250.147 475.427 225.813 493.373 217.56 520.08L201.293 572.68C190.986 606.053 209.747 641.6 243.12 651.92L244.653 652.387C250.72 654.267 257.013 655.213 263.333 655.213C291.293 655.213 315.64 637.267 323.893 610.56L340.147 557.96C345.133 541.813 343.533 524.667 335.613 509.693C327.707 494.72 314.467 483.72 298.32 478.72Z" fill="#393536"/>
<path d="M478.466 153.454L459.999 213.214C452.479 237.52 433.413 256.373 408.986 263.64C404.599 264.933 401.159 268.347 399.813 272.72C398.466 277.08 399.386 281.84 402.266 285.387C418.333 305.173 423.439 331.494 415.933 355.8L397.466 415.56C389.959 439.867 370.893 458.707 346.466 465.973C342.079 467.28 338.639 470.68 337.279 475.054C335.933 479.427 336.853 484.187 339.733 487.734C355.799 507.507 360.919 533.827 353.399 558.134L334.933 617.907C325.039 649.933 295.879 671.467 262.386 671.467C254.799 671.467 247.239 670.32 239.919 668.054L238.186 667.52C198.173 655.147 175.666 612.533 188.04 572.507L206.506 512.734C214.013 488.427 233.08 469.587 257.506 462.32C261.893 461.014 265.346 457.613 266.693 453.24C268.039 448.867 267.12 444.12 264.24 440.56C248.173 420.787 243.053 394.467 250.573 370.16L269.04 310.4C276.546 286.094 295.613 267.253 320.04 259.987C324.426 258.68 327.866 255.267 329.226 250.907C330.573 246.533 329.653 241.774 326.759 238.227C310.693 218.44 305.586 192.134 313.093 167.827L331.559 108.054C341.466 76.0269 370.626 54.5068 404.119 54.5068C406.719 54.5068 409.359 54.6401 411.959 54.9068C416.173 55.3468 420.333 53.8002 423.253 50.7602L433.719 40.9202L436.333 52.7468C436.333 53.3601 436.36 53.9868 436.44 54.6002C436.96 58.9335 439.506 62.7469 443.306 64.8935C474.146 82.3069 488.946 119.547 478.466 153.454ZM501.706 92.3202C493.813 72.7869 480.053 56.0668 462.586 44.6002L455.266 11.5068C454.213 6.7068 450.653 2.84021 445.946 1.38688C441.239 -0.0664557 436.119 1.10677 432.533 4.48011L408.333 27.2002C406.919 27.1468 405.519 27.1202 404.119 27.1202C358.546 27.1202 318.866 56.4001 305.399 99.9735L286.933 159.734C278.533 186.947 281.733 216 295.319 240.427C270.319 252.934 251.279 275.107 242.879 302.32L224.399 362.08C215.999 389.28 219.213 418.334 232.786 442.76C207.799 455.267 188.746 477.454 180.346 504.654L161.879 564.414C145.053 618.867 175.653 676.854 230.106 693.68L231.84 694.214C241.786 697.294 252.053 698.854 262.386 698.854C307.959 698.854 347.626 669.56 361.093 625.987L379.573 566.227C387.973 539.014 384.759 509.96 371.186 485.534C396.173 473.027 415.226 450.853 423.626 423.64L442.093 363.88C450.506 336.68 447.293 307.614 433.719 283.2C458.706 270.694 477.746 248.507 486.159 221.307L504.626 161.547C511.639 138.867 510.6 114.28 501.706 92.3202Z" fill="#393536"/>
<path d="M22.3794 913.874C22.3794 917.326 23.6598 919.831 26.2206 921.39C28.7814 923.282 34.2371 925.231 42.5876 927.235C51.3835 929.351 57.7856 932.245 61.7938 935.92C65.9134 939.594 67.9732 944.882 67.9732 951.786C67.9732 959.023 65.2454 964.868 59.7897 969.322C54.4454 973.775 47.4309 976.002 38.7464 976.002C26.1649 976.002 14.8082 971.548 4.67629 962.641L13.3608 952.287C21.8227 959.524 30.3959 963.142 39.0804 963.142C43.4227 963.142 46.9299 962.196 49.6021 960.303C52.2742 958.299 53.6103 955.738 53.6103 952.621C53.6103 949.503 52.3856 947.054 49.9361 945.272C47.5979 943.491 43.367 941.876 37.2433 940.429C26.666 937.979 19.3175 935.085 15.1979 931.744C10.4103 928.07 8.01649 922.447 8.01649 914.876C8.01649 907.528 10.6887 901.794 16.033 897.674C21.3773 893.443 28.2247 891.328 36.5753 891.328C47.8206 891.328 57.4515 894.612 65.468 901.181L58.1196 911.536C55.6701 909.309 52.3856 907.528 48.266 906.192C44.1464 904.744 40.0825 904.021 36.0742 904.021C31.9546 904.021 28.6144 904.911 26.0536 906.693C23.6041 908.363 22.3794 910.757 22.3794 913.874ZM126.832 905.858H80.7371V893.332H146.038V904.021L98.4402 961.973V962.307H146.706V975H79.234V964.311L126.832 906.192V905.858ZM201.767 903.854C193.639 903.854 186.792 906.748 181.225 912.538C175.658 918.328 172.874 925.342 172.874 933.581C172.874 941.821 175.658 948.835 181.225 954.625C186.792 960.303 193.639 963.142 201.767 963.142C209.895 963.142 216.742 960.303 222.309 954.625C227.876 948.835 230.66 941.821 230.66 933.581C230.66 925.342 227.876 918.328 222.309 912.538C216.742 906.748 209.895 903.854 201.767 903.854ZM201.767 975.835C189.52 975.835 179.276 971.827 171.037 963.81C162.798 955.682 158.678 945.606 158.678 933.581C158.678 921.557 162.798 911.536 171.037 903.52C179.276 895.392 189.52 891.328 201.767 891.328C214.014 891.328 224.258 895.392 232.497 903.52C240.736 911.536 244.856 921.557 244.856 933.581C244.856 945.606 240.68 955.627 232.33 963.643C223.979 971.771 213.792 975.835 201.767 975.835ZM203.938 886.485H191.913L204.272 869.616L218.134 875.295L203.938 886.485ZM264.939 905.691V893.332H304.687V947.109C304.687 956.351 302.349 963.421 297.673 968.32C292.997 973.219 286.706 975.668 278.801 975.668C269.337 975.668 261.265 972.328 254.584 965.647L262.434 954.792C267.667 959.802 272.844 962.307 277.966 962.307C281.64 962.307 284.702 961.082 287.151 958.633C289.601 956.184 290.826 952.621 290.826 947.944V905.691H264.939ZM338.179 956.462L329.996 975H315.299L351.373 893.332H366.07L401.977 975H387.28L379.097 956.462H338.179ZM373.585 943.602L358.722 910.033L343.858 943.602H373.585ZM413.351 975V893.332H445.083C456.551 893.332 464.345 895.781 468.464 900.68C472.138 904.8 473.976 909.532 473.976 914.876C473.976 921.334 471.971 926.122 467.963 929.239C466.627 930.241 464.623 931.355 461.951 932.579C467.072 933.693 471.081 935.975 473.976 939.427C476.982 942.878 478.485 947.165 478.485 952.287C478.485 958.744 476.147 964.144 471.47 968.487C466.905 972.829 459.446 975 449.091 975H413.351ZM427.213 927.235H444.582C454.602 927.235 459.613 923.839 459.613 917.047C459.613 913.151 458.388 910.367 455.938 908.697C453.6 906.915 449.87 906.025 444.749 906.025H427.213V927.235ZM427.213 962.307H448.757C454.101 962.307 458.054 961.472 460.615 959.802C463.176 958.021 464.456 955.014 464.456 950.784C464.456 943.546 458.666 939.928 447.087 939.928H427.213V962.307ZM507.298 956.462L499.115 975H484.418L520.492 893.332H535.189L571.096 975H556.399L548.216 956.462H507.298ZM542.705 943.602L527.841 910.033L512.977 943.602H542.705ZM582.47 975V893.332H614.202C625.67 893.332 633.464 895.781 637.583 900.68C641.258 904.8 643.095 909.532 643.095 914.876C643.095 921.334 641.091 926.122 637.082 929.239C635.746 930.241 633.742 931.355 631.07 932.579C636.192 933.693 640.2 935.975 643.095 939.427C646.101 942.878 647.604 947.165 647.604 952.287C647.604 958.744 645.266 964.144 640.59 968.487C636.025 972.829 628.565 975 618.21 975H582.47ZM596.332 927.235H613.701C623.722 927.235 628.732 923.839 628.732 917.047C628.732 913.151 627.507 910.367 625.058 908.697C622.719 906.915 618.99 906.025 613.868 906.025H596.332V927.235ZM596.332 962.307H617.876C623.22 962.307 627.173 961.472 629.734 959.802C632.295 958.021 633.575 955.014 633.575 950.784C633.575 943.546 627.785 939.928 616.206 939.928H596.332V962.307Z" fill="#393536"/>
</svg>
