<svg width="32" height="70" viewBox="0 0 342 1093" fill="none" xmlns="http://www.w3.org/2000/svg">
<path d="M303.533 241.093L302.84 240.44C283.827 222.267 272.92 196.76 272.92 170.454V167.76H290.747C298.307 167.76 304.44 161.627 304.44 154.067V94.3468C304.44 86.7868 298.307 80.6535 290.747 80.6535H105.2C97.6401 80.6535 91.5067 86.7868 91.5067 94.3468V154.067C91.5067 161.627 97.6401 167.76 105.2 167.76H123.027V170.454C123.027 196.76 112.12 222.267 93.1067 240.44L92.4133 241.107C68.0267 264.414 54.04 297.147 54.04 330.88V677.467C54.04 721.56 89.92 757.427 134.013 757.427H261.933C306.027 757.427 341.907 721.56 341.907 677.467V330.88C341.907 297.147 327.92 264.413 303.533 241.093Z" fill="#E8C498"/>
<path d="M208.6 650.054H80.68C51.68 650.054 28.0934 626.454 28.0934 597.467V286.627H261.187V597.467C261.187 626.454 237.6 650.054 208.6 650.054ZM58.0133 180.893L58.6934 180.24C83.0934 156.92 97.08 124.2 97.08 90.4536V87.7601H192.213V90.4536C192.213 124.2 206.2 156.92 230.587 180.24L231.267 180.893C250.28 199.067 261.187 224.587 261.187 250.88V259.24H28.0934V250.88C28.0934 224.587 39 199.067 58.0133 180.893ZM65.56 28.0403H223.72V60.3736H65.56V28.0403ZM250.2 161.093L249.507 160.44C230.493 142.267 219.587 116.76 219.587 90.4536V87.7601H237.413C244.973 87.7601 251.107 81.6268 251.107 74.0668V14.3468C251.107 6.78677 244.973 0.653545 237.413 0.653545H51.8667C44.3067 0.653545 38.1733 6.78677 38.1733 14.3468V74.0668C38.1733 81.6268 44.3067 87.7601 51.8667 87.7601H69.6934V90.4536C69.6934 116.76 58.7867 142.267 39.7733 160.44L39.08 161.107C14.6933 184.414 0.706665 217.147 0.706665 250.88V597.467C0.706665 641.56 36.5866 677.427 80.68 677.427H208.6C252.693 677.427 288.573 641.56 288.573 597.467V250.88C288.573 217.147 274.587 184.413 250.2 161.093Z" fill="#393536"/>
<path d="M80.6799 606.427C75.7332 606.427 71.7066 602.4 71.7066 597.467V393.893C71.7066 386.333 65.5866 380.2 58.0266 380.2C50.4533 380.2 44.3333 386.333 44.3333 393.893V597.467C44.3333 617.507 60.6399 633.813 80.6799 633.813C88.2399 633.813 94.3732 627.68 94.3732 620.12C94.3732 612.56 88.2399 606.427 80.6799 606.427Z" fill="#393536"/>
<path d="M100.254 897.858V967H86.3918V897.858H61.6742V885.332H124.971V897.858H100.254ZM197.525 885.332V898.192H153.935V919.903H193.016V932.095H153.935V953.973H198.861V967H140.073V885.332H197.525ZM219.158 897.691V885.332H258.906V939.109C258.906 948.351 256.568 955.421 251.892 960.32C247.216 965.219 240.925 967.668 233.02 967.668C223.556 967.668 215.484 964.328 208.803 957.647L216.653 946.792C221.886 951.802 227.063 954.307 232.185 954.307C235.859 954.307 238.921 953.082 241.37 950.633C243.82 948.184 245.044 944.621 245.044 939.944V897.691H219.158Z" fill="#393536"/>
</svg>
