<svg width="32" height="70" viewBox="0 0 482 927" fill="none" xmlns="http://www.w3.org/2000/svg">
<path d="M421.013 177.493C401.28 147.92 378.587 124.427 353.56 107.707C326.2 89.4135 297.413 80.1334 267.973 80.1334C238.547 80.1334 209.747 89.4135 182.387 107.707C157.36 124.427 134.667 147.92 114.933 177.493C76.1732 235.573 53.9465 309.666 53.9465 380.786C53.9465 450.6 75.5999 509.547 116.547 551.24C154.88 590.28 208.653 611.773 267.973 611.773C327.293 611.773 381.067 590.28 419.4 551.24C460.347 509.547 482 450.6 482 380.786C482 309.666 459.773 235.573 421.013 177.493Z" fill="#F7939E"/>
<path d="M346.533 452.053C313.387 485.8 266.547 504.386 214.64 504.386C162.733 504.386 115.893 485.8 82.76 452.053C46.9334 415.586 28 363.266 28 300.786C28 234.946 48.5466 166.387 84.3733 112.693C121.027 57.7599 167.28 27.5198 214.64 27.5198C262 27.5198 308.267 57.7599 344.907 112.693C380.733 166.387 401.28 234.946 401.28 300.786C401.28 363.266 382.347 415.586 346.533 452.053ZM367.68 97.4933C347.947 67.9199 325.253 44.4268 300.227 27.7068C272.867 9.41347 244.08 0.133365 214.64 0.133365C185.213 0.133365 156.413 9.41347 129.053 27.7068C104.027 44.4268 81.3333 67.9199 61.6 97.4933C22.84 155.573 0.613281 229.666 0.613281 300.786C0.613281 370.6 22.2666 429.547 63.2133 471.24C101.547 510.28 155.32 531.773 214.64 531.773C273.96 531.773 327.733 510.28 366.067 471.24C407.013 429.547 428.667 370.6 428.667 300.786C428.667 229.666 406.44 155.573 367.68 97.4933Z" fill="#393536"/>
<path d="M214.64 46.214C174.333 46.214 132.52 74.2271 99.9332 123.067C95.7332 129.36 97.4266 137.854 103.72 142.054C106.053 143.614 108.693 144.36 111.307 144.36C115.733 144.36 120.067 142.227 122.707 138.267C150.133 97.1738 183.64 73.6005 214.64 73.6005C222.2 73.6005 228.333 67.4672 228.333 59.9072C228.333 52.3472 222.2 46.214 214.64 46.214Z" fill="#393536"/>
<path d="M96.2536 731.858V801H82.3918V731.858H57.6742V719.332H120.971V731.858H96.2536ZM173.818 729.854C165.69 729.854 158.843 732.748 153.276 738.538C147.709 744.328 144.925 751.342 144.925 759.581C144.925 767.821 147.709 774.835 153.276 780.625C158.843 786.303 165.69 789.142 173.818 789.142C181.946 789.142 188.793 786.303 194.36 780.625C199.927 774.835 202.711 767.821 202.711 759.581C202.711 751.342 199.927 744.328 194.36 738.538C188.793 732.748 181.946 729.854 173.818 729.854ZM173.818 801.835C161.57 801.835 151.327 797.827 143.088 789.81C134.849 781.682 130.729 771.606 130.729 759.581C130.729 747.557 134.849 737.536 143.088 729.52C151.327 721.392 161.57 717.328 173.818 717.328C186.065 717.328 196.309 721.392 204.548 729.52C212.787 737.536 216.906 747.557 216.906 759.581C216.906 771.606 212.731 781.627 204.381 789.643C196.03 797.771 185.843 801.835 173.818 801.835ZM236.99 731.691V719.332H276.738V773.109C276.738 782.351 274.4 789.421 269.724 794.32C265.048 799.219 258.757 801.668 250.852 801.668C241.388 801.668 233.316 798.328 226.635 791.647L234.485 780.792C239.718 785.802 244.895 788.307 250.017 788.307C253.691 788.307 256.753 787.082 259.202 784.633C261.652 782.184 262.876 778.621 262.876 773.944V731.691H236.99ZM310.23 782.462L302.047 801H287.35L323.424 719.332H338.121L374.028 801H359.331L351.148 782.462H310.23ZM345.636 769.602L330.772 736.033L315.908 769.602H345.636ZM337.119 712.318H325.094L337.453 695.449L351.315 701.128L337.119 712.318ZM396.424 739.874C396.424 743.326 397.705 745.831 400.266 747.39C402.826 749.282 408.282 751.231 416.633 753.235C425.428 755.351 431.83 758.245 435.839 761.92C439.958 765.594 442.018 770.882 442.018 777.786C442.018 785.023 439.29 790.868 433.835 795.322C428.49 799.775 421.476 802.002 412.791 802.002C400.21 802.002 388.853 797.548 378.721 788.641L387.406 778.287C395.868 785.524 404.441 789.142 413.125 789.142C417.468 789.142 420.975 788.196 423.647 786.303C426.319 784.299 427.655 781.738 427.655 778.621C427.655 775.503 426.43 773.054 423.981 771.272C421.643 769.491 417.412 767.876 411.288 766.429C400.711 763.979 393.362 761.085 389.243 757.744C384.455 754.07 382.061 748.447 382.061 740.876C382.061 733.528 384.734 727.794 390.078 723.674C395.422 719.443 402.27 717.328 410.62 717.328C421.866 717.328 431.496 720.612 439.513 727.181L432.165 737.536C429.715 735.309 426.43 733.528 422.311 732.192C418.191 730.744 414.127 730.021 410.119 730.021C406 730.021 402.659 730.911 400.099 732.693C397.649 734.363 396.424 736.757 396.424 739.874Z" fill="#393536"/>
</svg>
