<svg width="32" height="70" viewBox="0 0 450 1118" fill="none" xmlns="http://www.w3.org/2000/svg">
<path d="M403.173 176.013C399.426 172.267 393.84 171.013 388.84 172.827L306.813 202.52C306.16 202.747 305.506 202.96 304.84 203.174L304.266 203.36C304.213 203.373 304.173 203.387 304.12 203.4C305.826 192.067 304.067 180.187 298.547 169.413L298.28 168.88C297.96 168.253 297.64 167.64 297.347 167.013L260.333 88.0267C258.08 83.2134 253.253 80.1335 247.933 80.1335C242.626 80.1335 237.786 83.2134 235.533 88.0267L198.52 167.027C198.226 167.653 197.92 168.267 197.6 168.88L197.32 169.413C191.613 180.587 189.92 192.92 191.96 204.64C190.8 204.174 189.613 203.747 188.413 203.36L187.853 203.174C187.186 202.96 186.52 202.747 185.866 202.507L103.84 172.827C98.8398 171.013 93.253 172.267 89.493 176.013C85.7463 179.773 84.4932 185.36 86.3065 190.36L115.986 272.387C116.226 273.014 116.426 273.653 116.626 274.293L116.84 274.933C124.36 298.227 145.867 313.867 170.347 313.867H171.106C180.48 313.867 189.307 311.56 197.08 307.493L172.466 664.8C171.186 678.133 170.547 691.68 170.547 705.067V731.547C170.547 773 204.266 806.72 245.72 806.72H246.96C288.413 806.72 322.133 773 322.133 731.547V705.067C322.133 691.68 321.493 678.133 320.213 664.8L295.6 307.533C303.52 311.667 312.373 313.867 321.573 313.867H322.32C346.813 313.867 368.32 298.227 375.84 274.947L376.04 274.32C376.253 273.667 376.453 273.027 376.68 272.387L406.373 190.36C408.173 185.36 406.933 179.773 403.173 176.013Z" fill="#C9E884"/>
<path d="M297.613 183.054C297.253 184.014 296.946 184.973 296.64 185.933L296.453 186.52C292.586 198.467 281.559 206.493 268.986 206.493H268.24C260.533 206.493 253.279 203.48 247.826 198.04C242.373 192.587 239.373 185.333 239.373 177.627V176.867C239.373 164.307 247.4 153.267 259.346 149.413L259.88 149.24C260.866 148.92 261.84 148.613 262.8 148.267L317.346 128.52L297.613 183.054ZM241.413 651.547C241.413 677.907 219.986 699.347 193.626 699.347H192.386C166.026 699.347 144.586 677.907 144.586 651.547V625.067C144.586 612.48 145.2 599.76 146.413 587.24C146.426 587.12 146.426 586.987 146.44 586.867L174.08 185.72C174.16 184.467 174.066 183.24 173.826 182.067C173.946 180.6 174.026 179.12 174.026 177.627V176.867C174.026 173.733 173.76 170.64 173.266 167.613C179.946 170.36 187.16 171.8 194.6 171.8C200.813 171.8 206.853 170.787 212.573 168.867C212.2 171.493 211.986 174.16 211.986 176.867V177.627C211.986 179.12 212.066 180.6 212.186 182.08C211.946 183.253 211.84 184.467 211.933 185.72L239.573 586.867C239.573 586.987 239.586 587.107 239.6 587.24C240.813 599.76 241.413 612.493 241.413 625.067V651.547ZM117.773 206.493H117.013C104.453 206.493 93.4261 198.467 89.5595 186.507L89.373 185.92C89.0663 184.974 88.7595 184.013 88.4128 183.067L68.6662 128.52L123.213 148.254C124.186 148.614 125.16 148.934 126.146 149.24L126.666 149.413C138.613 153.267 146.64 164.307 146.64 176.867V177.627C146.64 193.547 133.693 206.493 117.773 206.493ZM168.373 101.88L168.626 101.387C169.093 100.48 169.559 99.56 169.986 98.6267L194.6 46.1069L219.213 98.6267C219.64 99.56 220.106 100.48 220.586 101.387L220.84 101.88C226.56 113.067 224.426 126.547 215.546 135.427L215.013 135.96C209.56 141.413 202.306 144.413 194.6 144.413C186.893 144.413 179.653 141.413 174.186 135.947L173.666 135.427C164.773 126.547 162.653 113.067 168.373 101.88ZM349.84 96.0134C346.093 92.2667 340.506 91.0134 335.506 92.8267L253.48 122.52C252.826 122.747 252.173 122.96 251.506 123.174L250.933 123.36C250.88 123.373 250.839 123.387 250.786 123.4C252.493 112.067 250.733 100.187 245.213 89.4134L244.946 88.8801C244.626 88.2534 244.306 87.6401 244.013 87.0134L207 8.02669C204.746 3.21335 199.92 0.133458 194.6 0.133458C189.293 0.133458 184.453 3.21335 182.2 8.02669L145.186 87.0267C144.893 87.6534 144.586 88.2667 144.266 88.8801L143.986 89.4134C138.279 100.587 136.586 112.92 138.626 124.64C137.466 124.174 136.28 123.747 135.08 123.36L134.519 123.174C133.853 122.96 133.186 122.747 132.533 122.507L50.5063 92.8267C45.5063 91.0134 39.9195 92.2667 36.1595 96.0134C32.4128 99.7734 31.1597 105.36 32.973 110.36L62.653 192.387C62.893 193.014 63.0928 193.653 63.2928 194.293L63.5063 194.933C71.0263 218.227 92.5331 233.867 117.013 233.867H117.773C127.146 233.867 135.973 231.56 143.746 227.493L119.133 584.8C117.853 598.133 117.213 611.68 117.213 625.067V651.547C117.213 693 150.933 726.72 192.386 726.72H193.626C235.079 726.72 268.8 693 268.8 651.547V625.067C268.8 611.68 268.16 598.133 266.88 584.8L242.266 227.533C250.186 231.667 259.04 233.867 268.24 233.867H268.986C293.479 233.867 314.986 218.227 322.506 194.947L322.706 194.32C322.92 193.667 323.12 193.027 323.346 192.387L353.04 110.36C354.84 105.36 353.6 99.7734 349.84 96.0134Z" fill="#393536"/>
<path d="M53.1093 922.858H7.01443V910.332H72.3155V921.021L24.7175 978.973V979.307H72.9835V992H5.51134V981.311L53.1093 923.192V922.858ZM147.752 910.332V923.192H104.162V944.903H143.242V957.095H104.162V978.973H149.088V992H90.3001V910.332H147.752ZM166.712 992V910.332H180.574V978.973H217.817V992H166.712ZM232.841 992V910.332H246.703V978.973H283.946V992H232.841ZM356.422 910.332V923.192H312.832V944.903H351.912V957.095H312.832V978.973H357.758V992H298.97V910.332H356.422ZM422.98 962.272L444.357 992H426.821L407.281 964.443H389.244V992H375.382V910.332H405.778C418.137 910.332 426.988 912.447 432.333 916.678C437.788 920.798 440.516 927.534 440.516 936.887C440.516 950.359 434.671 958.821 422.98 962.272ZM406.279 952.085C413.961 952.085 419.25 950.915 422.145 948.577C425.04 946.239 426.487 942.287 426.487 936.72C426.487 931.375 425.04 927.757 422.145 925.864C419.25 923.86 414.073 922.858 406.613 922.858H389.244V952.085H406.279Z" fill="#393536"/>
</svg>
