<svg width="1056" height="518" viewBox="0 0 1056 518" fill="none" xmlns="http://www.w3.org/2000/svg">
<path d="M437.289 237.789H456.918V363.863H520.297V379H437.289V237.789ZM542.367 342.477V306.441C542.367 296.676 545.72 288.766 552.426 282.711C559.132 276.591 569.906 273.531 584.75 273.531C598.943 273.531 609.392 276.331 616.098 281.93C622.803 287.464 626.156 295.146 626.156 304.977V329.586H560.727V344.137C560.727 352.535 562.387 358.46 565.707 361.91C569.092 365.361 575.668 367.086 585.434 367.086C591.228 367.086 595.785 366.891 599.105 366.5C602.491 366.044 604.965 364.742 606.527 362.594C608.155 360.38 609.229 356.669 609.75 351.461H625.961C625.115 359.599 623.324 365.816 620.59 370.113C617.921 374.345 613.786 377.242 608.188 378.805C602.589 380.367 595.004 381.148 585.434 381.148C570.004 381.148 558.969 377.926 552.328 371.48C545.688 365.035 542.367 355.367 542.367 342.477ZM608.383 317.184V303.023C608.383 296.773 606.202 292.639 601.84 290.621C597.543 288.603 591.846 287.594 584.75 287.594C577.458 287.594 571.632 288.863 567.27 291.402C562.908 293.941 560.727 298.401 560.727 304.781V317.184H608.383ZM657.211 275.484H675.57V285.543C678.63 282.027 682.471 279.163 687.094 276.949C691.716 274.671 697.771 273.531 705.258 273.531C713.266 273.531 719.711 274.801 724.594 277.34C729.542 279.814 733.22 283.069 735.629 287.105C740.121 282.678 745.004 279.326 750.277 277.047C755.616 274.703 762.029 273.531 769.516 273.531C778.044 273.531 784.783 274.931 789.73 277.73C794.678 280.465 798.194 284.143 800.277 288.766C802.426 293.323 803.5 298.336 803.5 303.805V379H785.141V302.73C785.141 297.587 783.35 293.779 779.77 291.305C776.189 288.831 771.208 287.594 764.828 287.594C755.844 287.594 749.431 289.286 745.59 292.672C741.749 296.057 739.828 300.257 739.828 305.27V379H721.469V302.73C721.469 297.587 719.581 293.779 715.805 291.305C712.029 288.831 706.951 287.594 700.57 287.594C691.586 287.594 685.173 289.286 681.332 292.672C677.491 296.057 675.57 300.257 675.57 305.27V379H657.211V275.484ZM878.012 381.148C867.66 381.148 859.327 379.749 853.012 376.949C846.762 374.085 842.204 370.178 839.34 365.23C836.54 360.283 835.141 354.618 835.141 348.238V306.539C835.141 300.159 836.54 294.495 839.34 289.547C842.204 284.534 846.762 280.628 853.012 277.828C859.327 274.964 867.66 273.531 878.012 273.531C888.298 273.531 896.566 274.964 902.816 277.828C909.132 280.628 913.721 284.534 916.586 289.547C919.451 294.495 920.883 300.159 920.883 306.539V348.238C920.883 354.618 919.451 360.283 916.586 365.23C913.721 370.178 909.132 374.085 902.816 376.949C896.566 379.749 888.298 381.148 878.012 381.148ZM878.012 367.086C885.173 367.086 891.033 365.816 895.59 363.277C900.212 360.673 902.523 356.181 902.523 349.801V304.977C902.523 298.596 900.212 294.104 895.59 291.5C891.033 288.896 885.173 287.594 878.012 287.594C870.72 287.594 864.796 288.896 860.238 291.5C855.746 294.104 853.5 298.596 853.5 304.977V349.801C853.5 356.181 855.746 360.673 860.238 363.277C864.796 365.816 870.72 367.086 878.012 367.086ZM953.5 275.484H971.859V285.543C974.919 282.027 978.923 279.163 983.871 276.949C988.819 274.671 995.036 273.531 1002.52 273.531C1011.05 273.531 1017.89 274.931 1023.03 277.73C1028.24 280.465 1032.02 284.143 1034.36 288.766C1036.7 293.323 1037.88 298.336 1037.88 303.805V379H1019.52V302.73C1019.52 297.587 1017.5 293.779 1013.46 291.305C1009.42 288.831 1004.22 287.594 997.836 287.594C988.852 287.594 982.276 289.286 978.109 292.672C973.943 296.057 971.859 300.257 971.859 305.27V379H953.5V275.484Z" fill="#1D374A"/>
<path fill-rule="evenodd" clip-rule="evenodd" d="M187.031 1.37776C180.157 4.80776 180.048 5.53276 180.01 48.1188C179.98 81.7388 179.773 86.7058 178.216 91.2098C174.816 101.046 168.693 106.082 155.081 110.24C122.458 120.205 114.026 123.621 95.6473 134.319C56.7743 156.946 26.8683 192.812 10.9433 235.903C-1.84167 270.496 -3.57569 317.233 6.54031 354.542C11.7493 373.753 23.7373 399.926 34.1633 414.852C39.5493 422.563 52.2713 437.581 58.1633 443.183C79.7113 463.671 108.098 480.484 137.449 490.143C145.064 492.648 152.475 495.322 153.918 496.085C155.36 496.847 159.691 500.689 163.541 504.623C167.391 508.557 172.791 512.977 175.541 514.446C180.002 516.83 181.619 517.118 190.541 517.118C203.759 517.119 207.923 515.244 218.041 504.735L225.541 496.945L238.541 492.644C276.268 480.162 299.962 466.436 323.907 443.191C342.337 425.301 352.786 410.827 363.504 388.344C377.79 358.375 383.838 329.635 382.772 296.773C379.956 209.96 326.229 142.214 237.027 112.999C227.802 109.977 218.2 106.203 215.691 104.612C210.221 101.143 206.541 95.6368 204.528 87.9078C202.497 80.1088 202.649 77.9198 205.415 75.1538C208.433 72.1358 217.847 67.3308 219.5 67.9648C220.19 68.2298 224.374 73.0978 228.797 78.7828C244.388 98.8218 260.196 112.15 280.412 122.299C292.793 128.515 305.055 132.772 317.771 135.269C329.635 137.599 355.951 137.586 369.002 135.244C388.094 131.818 410.109 122.481 414.022 116.149C417.682 110.227 416.223 106.056 405.919 92.9808C381.475 61.9618 357.228 43.9018 326.468 33.8018C308.86 28.0208 302.493 27.1168 279.541 27.1418C259.804 27.1628 257.88 27.3337 247.541 29.9877C235.791 33.0027 219.036 39.4928 210.041 44.5128C207.016 46.2018 204.204 47.5908 203.791 47.6008C203.378 47.6108 203.041 38.6538 203.041 27.6958C203.041 7.81075 203.036 7.76676 200.497 4.74876C199.098 3.08577 196.96 1.44076 195.747 1.09276C194.534 0.744759 192.861 0.274761 192.031 0.0477608C191.2 -0.178239 188.95 0.419763 187.031 1.37776ZM265.456 50.0058C254.2 51.8478 246.155 54.5378 244.903 56.8768C243.521 59.4598 248.382 66.5947 258.866 77.3717C275.362 94.3298 295.077 105.675 318.541 111.71C326.144 113.666 330.102 114.029 344.041 114.049C358.184 114.069 361.821 113.737 369.505 111.727C378.903 109.269 385.041 106.792 385.041 105.459C385.041 104.047 373.561 91.2958 365.592 83.8568C338.828 58.8738 297.216 44.8068 265.456 50.0058ZM187.541 117.75C181.801 125.565 175.202 129.042 156.207 134.261C133.968 140.37 119.715 146.352 104.541 155.941C69.6393 177.999 45.2033 209.173 32.0573 248.411C28.3023 259.619 25.0783 274.516 25.0573 280.754C25.0363 286.78 26.9933 288.087 39.2433 290.227C52.3613 292.519 68.7173 291.689 79.7563 288.172C91.6753 284.374 99.4613 278.626 126.12 253.947C209.739 176.538 210.319 176.013 221.026 168.18C229.343 162.095 243.289 155.354 253.768 152.354C258.293 151.058 262.238 149.755 262.536 149.458C263.356 148.637 252.494 143.174 244.041 140.156C239.916 138.683 231.648 136.146 225.668 134.519C210.614 130.424 205.179 127.609 197.735 120.055C194.247 116.515 191.202 113.63 190.967 113.643C190.733 113.656 189.191 115.504 187.541 117.75ZM270.541 172.566C246.655 176.483 235.183 183.818 198.541 218.603C183.773 232.623 125.972 285.963 120.041 291.046C101.455 306.971 79.9703 314.625 53.8843 314.613C47.0953 314.61 38.8793 314.171 35.6243 313.639C24.2683 311.779 22.5783 314.755 25.4703 331.518C27.6493 344.144 30.4233 351.121 33.8223 352.525C45.2463 357.244 71.3153 356.32 86.2483 350.667C98.4663 346.043 104.887 340.79 153.462 295.688C163.869 286.025 175.857 274.969 180.102 271.119C184.347 267.269 199.682 253.074 214.18 239.574C246.196 209.765 250.465 206.198 261.715 199.86C275.271 192.223 295.646 185.643 305.791 185.626C308.247 185.622 310.041 185.148 310.041 184.503C310.041 182.774 301.945 175.608 298.041 173.881C293.978 172.084 278.109 171.325 270.541 172.566ZM299.094 210.147C283.127 213.036 269.813 219.848 255.937 232.227C248.334 239.01 233.329 252.966 200.06 284.198C166.176 316.008 131.92 347.368 123.041 354.706C108.918 366.378 91.9583 374.357 74.0413 377.759C70.4663 378.438 61.3903 379.014 53.8733 379.04L40.2043 379.087L41.8733 381.945C43.9963 385.584 47.1113 387.18 57.3233 389.861C64.0693 391.632 68.1383 391.999 80.0413 391.906C96.8723 391.775 105.174 390.017 118.325 383.798C129.544 378.494 135.057 374.152 160.582 350.523C172.705 339.301 185.565 327.419 189.161 324.119C192.756 320.819 210.039 304.619 227.567 288.119C283.307 235.646 283.613 235.385 297.047 228.621C306.193 224.016 322.496 218.783 330.291 217.949C333.454 217.611 336.041 217.157 336.041 216.941C336.041 215.275 332.034 211.096 329.369 209.983C325.203 208.242 309.139 208.329 299.094 210.147ZM325.206 242.669C306.058 246.991 301.595 250.195 260.529 289.105C237.07 311.333 161.722 381.414 153.541 388.614C144.764 396.338 134.995 402.399 124.244 406.79C108.017 413.419 101.465 414.785 82.5413 415.488L65.5413 416.119L69.3253 419.721C73.8603 424.038 77.4063 425.201 90.5543 426.683C109.178 428.783 127.065 425.738 143.541 417.664C155.08 412.01 163.743 405.27 183.541 386.545C245.191 328.235 273.751 301.849 282.041 295.543C290.692 288.962 306.661 281.116 316.541 278.593C325.668 276.263 342.232 275.823 350.897 277.681C353.802 278.305 356.459 278.534 356.801 278.192C357.762 277.231 355.12 263.014 352.34 254.193C348.966 243.486 346.073 240.589 338.868 240.703C335.938 240.75 329.79 241.634 325.206 242.669ZM320.766 301.185C308.799 304.084 299.169 310.11 284 324.191C279.302 328.551 259.046 347.644 238.987 366.619C197.97 405.419 177.046 424.529 170.193 429.45C156.747 439.105 132.336 448.305 115.116 450.207L108.691 450.917L111.116 452.92C115.427 456.481 128.043 461.739 148.012 468.3C158.753 471.828 169.198 475.805 171.223 477.136C173.248 478.468 177.398 482.643 180.446 486.415C186.469 493.87 189.234 495.687 193.358 494.899C196.989 494.205 201.72 488.578 203.041 483.382C212.314 446.91 221.647 429.713 244.442 407.099C275.581 376.206 300.371 352.535 306.067 348.256C319.35 338.276 334.733 332.619 348.584 332.619C357.112 332.619 356.742 333.195 357.704 318.439L358.335 308.759L355.352 305.776C349.599 300.024 334.069 297.962 320.766 301.185ZM333.53 358.959C324.332 362.379 319.918 365.92 294.802 390.021C246.385 436.483 246.045 436.868 237.486 454.996C232.711 465.111 231.28 469.619 232.842 469.619C235.703 469.619 252.828 463.214 262.271 458.611C288.159 445.995 313.048 424.761 329.659 401.119C339.222 387.508 350.333 362.428 348.693 358.154C347.83 355.905 340.727 356.282 333.53 358.959Z" fill="#AFA816"/>
</svg>
